<svg width="25" height="26" viewBox="0 0 25 26" fill="none" xmlns="http://www.w3.org/2000/svg">
<path fill-rule="evenodd" clip-rule="evenodd" d="M25 9.29655V9.77626C24.9159 10.8784 24.273 11.8336 23.5345 12.6329C23.313 12.8424 23.0899 12.9698 22.8135 13.0974C22.4045 13.2908 22.1336 13.5627 21.8352 13.8975L21.7203 14.0252C21.6509 14.1037 21.5823 14.1828 21.5146 14.2627C21.4418 14.3467 21.3665 14.4286 21.2894 14.5087C20.9379 14.8788 20.5762 15.3331 20.5516 15.861L20.5611 16.021L20.6825 16.0816C20.6878 16.361 20.6894 16.4442 20.6741 16.5242C20.6677 16.5582 20.6581 16.5915 20.6446 16.639C20.6275 16.694 20.6186 16.7224 20.6218 16.7495C20.6253 16.7785 20.6427 16.8059 20.6787 16.8628C20.7588 17.0229 20.7526 17.1547 20.7445 17.3266L20.7431 17.3557L20.9858 17.4164C21.0598 17.7366 21.047 18.04 21.0334 18.3641L21.0313 18.4137L21.0264 18.602C21.013 18.9335 20.9987 19.1984 20.8038 19.4792C20.4738 19.7727 20.0357 20.0252 19.5904 20.0252L19.5487 20.1648C19.4508 20.3661 19.3605 20.4164 19.1657 20.522L19.1657 20.522C18.9377 20.6468 18.9376 20.6468 18.741 20.8139C18.749 20.8824 18.7532 20.9186 18.76 20.9543C18.7676 20.9943 18.7785 21.0337 18.8017 21.1173C18.8941 21.4869 18.9001 21.831 18.7979 22.198C18.6556 22.432 18.499 22.527 18.2556 22.6341L18.1336 22.689C18.0334 22.7329 17.9322 22.7747 17.8309 22.8161L17.8262 22.9604C17.8043 23.366 17.7799 23.6454 17.5276 23.9688C17.4558 24.0239 17.3823 24.0768 17.3077 24.1281C17.071 24.2911 16.9137 24.4894 16.7464 24.7196C16.4843 25.0764 16.2045 25.3652 15.8288 25.6069L15.7315 25.6735C15.3709 25.8904 15.0099 25.8764 14.6073 25.8607L14.513 25.8572C14.3674 25.853 14.2218 25.8493 14.0762 25.8463L13.8824 25.8397C13.696 25.8501 13.5714 25.896 13.402 25.9709C13.1756 25.9992 13.0706 25.9895 12.8711 25.8761C12.6989 25.6896 12.6562 25.5527 12.6132 25.3036L12.6554 25.1365C12.6797 24.8775 12.592 24.7282 12.4674 24.5165L12.4464 24.4807L12.38 24.3619C12.3174 24.2503 12.2533 24.1398 12.1885 24.0295L12.0928 23.8655C12.0087 23.7297 11.9179 23.6016 11.8245 23.4721C11.5594 23.0707 11.4595 22.7089 11.4485 22.2278C11.4301 21.4971 11.1513 20.9814 10.7059 20.4044C10.3567 19.8996 10.4287 19.3242 10.5194 18.7433C10.5857 18.477 10.6741 18.3106 10.8652 18.1141C11.025 17.9451 11.0635 17.8352 11.0699 17.6022C11.0555 17.3506 10.9891 17.1552 10.8893 16.9263C10.8466 16.7861 10.87 16.6622 10.8956 16.5259C10.9001 16.502 10.9047 16.4778 10.909 16.453C10.9375 15.7807 10.2787 15.0638 9.85016 14.5975L9.82759 14.5729C9.69661 14.4346 9.6966 14.4346 9.51904 14.2919L9.51903 14.2919C9.33712 14.0645 9.32993 13.8194 9.33701 13.5335L9.39768 13.4121C9.41377 13.2655 9.42405 13.1189 9.43437 12.9719L9.43437 12.9718L9.43537 12.9576C9.45896 12.8014 9.50828 12.7019 9.5797 12.5627C9.61311 12.2231 9.61311 12.2231 9.4958 11.9115C9.27908 11.7239 9.07392 11.7353 8.81201 11.75C8.78058 11.7518 8.74832 11.7536 8.71514 11.7551L8.54308 11.7592C8.40315 11.7628 8.26342 11.7678 8.1236 11.774L8.07597 11.6721L8.01197 11.5389L7.94918 11.4067C7.83698 11.2127 7.72998 11.1686 7.51689 11.1066C6.85235 11.0428 6.28415 11.1925 5.6823 11.4633C5.36364 11.5927 5.22374 11.5995 4.90804 11.4707C4.33553 11.4214 3.81743 11.4738 3.26329 11.6188C3.03777 11.6624 2.91715 11.6341 2.71956 11.5185L2.58643 11.4264L2.43783 11.3241L2.28402 11.2166L2.13306 11.1127C1.98545 11.0106 1.83898 10.907 1.69248 10.8033L1.55079 10.7072C1.34445 10.5627 1.26945 10.5102 1.21796 10.4403C1.18857 10.4004 1.16684 10.3549 1.1327 10.2833L1.10852 10.1283C0.972279 9.49939 0.710555 8.99138 0.175708 8.61915L0.0543666 8.55848C0.110135 8.20794 0.110135 8.20794 0.160541 8.06933C0.173559 8.01167 0.180778 7.9797 0.175495 7.94995C0.168917 7.91291 0.142964 7.87931 0.084702 7.80389L0.084699 7.80389C0.0333779 7.71622 0.0109993 7.67799 0.00332381 7.637C-0.00261096 7.60531 0.000244746 7.57198 0.00530847 7.51287C0.0661424 7.3048 0.16143 7.12203 0.262923 6.93175C0.553256 6.36553 0.725261 5.78886 0.547318 5.15335C0.535226 4.87525 0.692932 4.68601 0.863501 4.48133L0.903759 4.43289C1.04028 4.2923 1.18032 4.15632 1.32182 4.02075C1.47449 3.86102 1.57916 3.69261 1.6894 3.50245C1.77232 3.37113 1.85898 3.29246 1.99584 3.21947H2.17785L2.19302 3.11709C2.25477 2.92668 2.34427 2.8197 2.4812 2.67344C2.66464 2.58812 2.66464 2.58812 2.86798 2.52176L2.86798 2.52176C3.08663 2.44347 3.19472 2.40476 3.29127 2.34682C3.38568 2.29017 3.46905 2.21514 3.63395 2.06673C3.67426 1.9315 3.69909 1.79751 3.72377 1.65863C3.77815 1.42067 3.87248 1.255 4.05865 1.096C4.24125 1.00748 4.42609 0.935461 4.61606 0.864224C4.89641 0.746634 5.03723 0.559723 5.21518 0.322454C5.34351 0.173437 5.38455 0.143974 5.57542 0.125275C5.68823 0.185709 5.68823 0.185709 5.80293 0.27316C6.06957 0.451908 6.22839 0.465092 6.54615 0.428628C6.64745 0.388641 6.74856 0.348148 6.84951 0.307287C6.99922 0.291129 7.14822 0.280785 7.29861 0.273397C7.46323 0.254856 7.46323 0.254856 7.6146 0.154914C7.87374 0.0411077 8.07681 0.0424184 8.35585 0.0489628L8.50849 0.0501793C8.6684 0.0515924 8.82826 0.0542447 8.98816 0.0570206C9.14891 0.0591481 9.30966 0.0610144 9.47042 0.0625622C9.57022 0.0635924 9.67002 0.0649966 9.76982 0.0668096C9.90531 0.0685934 10.0284 0.050903 10.151 0.0332813C10.2731 0.0157278 10.3947 -0.00175771 10.5277 0.000141983L10.6779 0.00180094L10.7931 0.00393389L10.7552 0.208697L10.7324 0.428628L10.8538 0.549969C10.8765 0.697854 10.8765 0.697854 10.8538 0.853322L10.8538 0.853327C10.7887 0.912349 10.7585 0.93969 10.7257 0.963498C10.6975 0.984045 10.6673 1.00196 10.6111 1.03533L10.6718 1.33869L11.0391 1.42163C11.0891 1.4379 11.1179 1.44728 11.1438 1.46191C11.1789 1.48182 11.2086 1.51144 11.2785 1.58136L11.2785 1.58137C11.434 1.60494 11.434 1.60494 11.6084 1.6117C11.8425 1.62418 11.9279 1.63008 12.1279 1.76338L12.1848 1.9416C12.3406 2.17297 12.5076 2.20376 12.7494 2.24833L12.7495 2.24833C12.7844 2.25476 12.8208 2.26148 12.859 2.26913C13.0379 2.30942 13.0379 2.30942 13.2503 2.41938C13.3264 2.46663 13.3634 2.48961 13.4014 2.49141C13.4374 2.49311 13.4742 2.47581 13.5461 2.44213L13.6446 2.37009L13.6219 2.1767C13.6479 1.91267 13.6479 1.91267 13.8191 1.77096C14.0584 1.60821 14.1565 1.57393 14.441 1.57758L14.6083 1.57924L14.7367 1.58137L14.7974 1.88472L15.4041 1.94539V2.06673L15.5937 2.05915C15.8208 2.06648 15.9827 2.10609 16.1928 2.18807V2.30942C16.5269 2.32628 16.8255 2.33741 17.1408 2.21462C17.3832 2.12263 17.5521 2.1269 17.8056 2.16817C18.0392 2.19987 18.2747 2.19503 18.5101 2.19019L18.6197 2.18807C18.7281 2.42125 18.7575 2.60654 18.7562 2.86303L18.7571 3.0531C18.7501 3.12578 18.7461 3.16671 18.7338 3.20493C18.7178 3.2542 18.688 3.29898 18.6197 3.40149C18.3082 3.32819 18.1649 3.11327 18.0011 2.86768C17.9851 2.84364 17.9689 2.8193 17.9523 2.79478C17.9898 3.02001 18.0954 3.1864 18.2149 3.37468L18.2367 3.40907L18.3692 3.61976L18.4355 3.72501C18.547 3.90463 18.6522 4.0881 18.7574 4.27153L18.7574 4.27156L18.7761 4.3042C18.8715 4.44652 18.9829 4.55598 19.105 4.67557C19.1805 4.85793 19.1745 5.04957 19.1684 5.24364C19.1674 5.27668 19.1663 5.3098 19.1657 5.34294L19.2984 5.35811C19.5154 5.41597 19.6156 5.48459 19.7724 5.6463C19.8016 5.81429 19.8163 5.95955 19.8217 6.12787C19.8354 6.45098 19.8354 6.45098 19.9938 6.71822C20.0779 6.75769 20.1628 6.79548 20.2483 6.83174C20.454 6.97111 20.5507 7.20711 20.6442 7.43545C20.6621 7.47916 20.6799 7.52259 20.6983 7.565C20.8644 7.88744 21.0787 8.07233 21.3954 8.23996C21.7251 8.43187 22.044 8.66399 22.2599 8.98318C22.244 9.15168 22.244 9.15168 22.1992 9.28653L22.3033 9.34862L22.4381 9.43062L22.5725 9.51168C22.6846 9.58988 22.6846 9.58988 22.7453 9.71123L22.8628 9.65435C23.071 9.58211 23.2614 9.56188 23.48 9.54414C23.5952 9.541 23.5952 9.541 23.6553 9.46854C23.7662 9.44874 23.8776 9.4315 23.989 9.41546C24.3194 9.36329 24.6158 9.28019 24.9294 9.16519C24.9684 9.20416 24.9892 9.24868 25 9.29655ZM23.9088 19.2345C23.9983 19.2643 24.0438 19.2795 24.0791 19.3075C24.1156 19.3364 24.1412 19.3791 24.1932 19.4658C24.3155 19.7816 24.324 20.1156 24.2728 20.4479L24.2728 20.448C24.2105 20.519 24.1775 20.5568 24.1424 20.5925C24.1026 20.6329 24.0601 20.6707 23.9695 20.7512L23.9695 20.7512C23.8639 20.9522 23.7842 21.1647 23.7046 21.377L23.6661 21.4793C23.4884 21.9462 23.3073 22.4115 23.1201 22.8747L23.0587 23.029C22.8591 23.5192 22.7939 23.6796 22.6819 23.7945C22.6274 23.8505 22.5619 23.8956 22.4645 23.9628C22.217 24.0629 22.1237 24.1006 22.0329 24.0952C21.978 24.0919 21.9241 24.0728 21.8374 24.0421C21.6831 23.9391 21.5631 23.8549 21.5096 23.6718C21.4953 23.5312 21.4828 23.3912 21.4744 23.2501L21.4649 23.093C21.4532 22.6359 21.5768 22.3859 21.8109 21.9947C21.9536 21.6786 21.9299 21.3971 21.9015 21.0616L21.8979 21.0181C21.9026 20.9067 21.9048 20.8555 21.9214 20.8095C21.9356 20.7704 21.9602 20.735 22.0057 20.6695C22.1677 20.5564 22.3038 20.5099 22.4944 20.4593C23.1734 20.2448 23.5233 19.8154 23.9088 19.2345Z" fill="#3A8CFF" style="fill:#3A8CFF;fill:color(display-p3 0.2290 0.5482 1.0000);fill-opacity:1;"/>
</svg>
