<svg width="27" height="27" viewBox="0 0 27 27" fill="none" xmlns="http://www.w3.org/2000/svg">
<path d="M13.437 3.67501e-05C9.86751 0.0166946 6.44989 1.44636 3.93176 3.9763C1.41363 6.50624 -3.88677e-05 9.9305 8.01489e-10 13.5C8.01496e-10 17.0805 1.42232 20.5142 3.95406 23.046C6.4858 25.5777 9.91958 27 13.5 27C17.0804 27 20.5142 25.5777 23.0459 23.046C25.5777 20.5142 27 17.0805 27 13.5C27 9.91961 25.5777 6.48584 23.0459 3.9541C20.5142 1.42235 17.0804 3.67501e-05 13.5 3.67501e-05C13.479 -1.225e-05 13.458 -1.225e-05 13.437 3.67501e-05ZM19.0193 8.12704C19.1318 8.12479 19.3804 8.15291 19.5424 8.28454C19.65 8.37802 19.7187 8.5085 19.7347 8.65016C19.7528 8.75479 19.7752 8.99441 19.7572 9.18116C19.5548 11.3164 18.675 16.4959 18.2272 18.8865C18.0382 19.899 17.6659 20.2377 17.3048 20.2703C16.5217 20.3434 15.9266 19.7528 15.1673 19.2555C13.9792 18.4759 13.3076 17.991 12.1545 17.2305C10.8214 16.353 11.6854 15.8693 12.4447 15.0818C12.6439 14.8748 16.0976 11.7327 16.1651 11.448C16.173 11.412 16.1809 11.2793 16.1021 11.2095C16.0234 11.1398 15.9064 11.1634 15.822 11.1825C15.7028 11.2095 13.8049 12.465 10.1284 14.9457C9.58838 15.3169 9.10125 15.4969 8.66363 15.4857C8.18213 15.4767 7.25513 15.2145 6.5655 14.9907C5.7195 14.715 5.04787 14.5699 5.10638 14.103C5.13675 13.86 5.472 13.6114 6.111 13.3572C10.0463 11.6427 12.6698 10.512 13.9838 9.96641C17.7323 8.40716 18.5119 8.13604 19.0193 8.12704Z" fill="black" style="fill:black;fill-opacity:1;"/>
</svg>
