<svg width="27" height="27" viewBox="0 0 27 27" fill="none" xmlns="http://www.w3.org/2000/svg">
<path d="M13.5 0.333984C6.04125 0.333984 0 6.37861 0 13.834C0 19.7999 3.86775 24.859 9.23063 26.6421C9.90563 26.7692 10.1531 26.3519 10.1531 25.993C10.1531 25.6724 10.1419 24.823 10.1363 23.698C6.381 24.5125 5.589 21.8867 5.589 21.8867C4.97475 20.3286 4.08712 19.9124 4.08712 19.9124C2.86425 19.0754 4.18162 19.0922 4.18162 19.0922C5.53725 19.1867 6.24937 20.4827 6.24937 20.4827C7.45312 22.5471 9.4095 21.9509 10.1813 21.6055C10.3028 20.7325 10.6504 20.1374 11.0363 19.7999C8.03813 19.4624 4.887 18.3014 4.887 13.1286C4.887 11.6549 5.41012 10.4511 6.27637 9.50611C6.1245 9.16523 5.66888 7.79273 6.3945 5.93311C6.3945 5.93311 7.52513 5.57086 10.107 7.31686C11.187 7.01648 12.3345 6.86798 13.482 6.86123C14.6295 6.86798 15.777 7.01648 16.857 7.31686C19.422 5.57086 20.5526 5.93311 20.5526 5.93311C21.2782 7.79273 20.8226 9.16523 20.6876 9.50611C21.5483 10.4511 22.0714 11.6549 22.0714 13.1286C22.0714 18.3149 18.9158 19.4567 15.912 19.7886C16.3845 20.1936 16.8232 21.0216 16.8232 22.2861C16.8232 24.0929 16.8064 25.5441 16.8064 25.9829C16.8064 26.3372 17.0426 26.7591 17.7345 26.6241C23.1356 24.8534 27 19.7909 27 13.834C27 6.37861 20.9554 0.333984 13.5 0.333984Z" fill="black" style="fill:black;fill-opacity:1;"/>
</svg>
