<svg width="944" height="30" viewBox="0 0 944 30" fill="none" xmlns="http://www.w3.org/2000/svg">
<mask id="mask0_1_23" style="mask-type:alpha" maskUnits="userSpaceOnUse" x="0" y="0" width="944" height="30">
<rect width="944" height="30" fill="url(#paint0_linear_1_23)" style=""/>
</mask>
<g mask="url(#mask0_1_23)">
<g clip-path="url(#clip0_1_23)">
<g clip-path="url(#clip1_1_23)">
<mask id="mask1_1_23" style="mask-type:luminance" maskUnits="userSpaceOnUse" x="-75" y="0" width="116" height="30">
<path d="M-74.0175 0.46875H40.3575V29.5312H-74.0175V0.46875Z" fill="white" style="fill:white;fill-opacity:1;"/>
</mask>
<g mask="url(#mask1_1_23)">
<path d="M-46.6641 7.79434L-47.2959 6.69372C-47.3458 6.60707 -47.4149 6.53307 -47.498 6.47746C-47.5811 6.42185 -47.6758 6.38613 -47.7749 6.37308C-47.8741 6.36002 -47.9748 6.36998 -48.0695 6.40217C-48.1641 6.43436 -48.2501 6.48793 -48.3206 6.55872L-49.7728 7.99872C-49.8789 8.10432 -49.945 8.24354 -49.9597 8.39253C-49.9744 8.54151 -49.9369 8.69096 -49.8535 8.81528C-49.3245 9.6181 -48.9002 10.4851 -48.5906 11.3953C-46.5816 17.3137 -49.7869 23.7272 -55.7485 25.7212C-56.9199 26.1128 -58.147 26.3125 -59.3822 26.3128C-61.2418 26.3184 -63.0742 25.8671 -64.7185 24.9984L-62.2622 22.559C-58.0613 24.1359 -53.3653 22.034 -51.7763 17.8622C-51.3857 16.8371 -51.2096 15.7428 -51.2588 14.6469C-51.308 13.551 -51.5814 12.4769 -52.0622 11.4909C-52.1078 11.3976 -52.1749 11.3166 -52.258 11.2544C-52.3412 11.1922 -52.4379 11.1508 -52.5403 11.1335C-52.6427 11.1161 -52.7477 11.1235 -52.8466 11.1548C-52.9456 11.1862 -53.0357 11.2406 -53.1094 11.3137L-54.5794 12.7631C-54.6575 12.8405 -54.7144 12.9367 -54.7446 13.0424C-54.7748 13.1481 -54.7773 13.2599 -54.7519 13.3668L-54.6263 13.8918C-54.0094 16.4953 -55.636 19.1015 -58.2591 19.7137C-59.4592 19.9938 -60.7208 19.8125 -61.7935 19.2056L-62.4403 18.8362C-62.5642 18.7655 -62.7079 18.7373 -62.8493 18.7561C-62.9907 18.7749 -63.122 18.8396 -63.2231 18.9403L-69.2231 24.8953C-69.2887 24.96 -69.3396 25.0381 -69.3724 25.1242C-69.4051 25.2104 -69.4189 25.3026 -69.4129 25.3945C-69.4068 25.4865 -69.3811 25.5761 -69.3373 25.6572C-69.2936 25.7383 -69.2329 25.8091 -69.1594 25.8647L-68.2753 26.5378C-65.7206 28.4901 -62.5919 29.5426 -59.3766 29.5312C-51.286 29.5218 -44.7366 23.0025 -44.746 14.9709C-44.7497 12.4525 -45.4109 9.97876 -46.6641 7.79434ZM-50.4806 3.46309C-53.0352 1.51031 -56.164 0.457482 -59.3794 0.468717C-67.47 0.474342 -74.0231 6.99091 -74.0175 15.0215C-74.0147 17.5434 -73.3528 20.0212 -72.0956 22.2112L-71.4638 23.3109C-71.4135 23.3972 -71.3442 23.4708 -71.2611 23.5262C-71.1779 23.5816 -71.0833 23.6172 -70.9843 23.6303C-70.8853 23.6434 -70.7846 23.6337 -70.6899 23.6019C-70.5953 23.5701 -70.5091 23.5171 -70.4381 23.4468L-68.9888 22.0078C-68.8834 21.9021 -68.8179 21.7633 -68.8032 21.6148C-68.7885 21.4663 -68.8256 21.3174 -68.9081 21.1931C-69.438 20.3908 -69.8625 19.5237 -70.171 18.6131C-72.18 12.6947 -68.9738 6.28122 -63.0113 4.28715C-61.8401 3.89568 -60.6133 3.69592 -59.3785 3.69559C-57.5166 3.69184 -55.6847 4.14372 -54.0431 5.01372L-56.5013 7.45309C-60.7003 5.8734 -65.3953 7.97247 -66.9872 12.1406C-67.3364 13.0548 -67.5153 14.0251 -67.515 15.0037C-67.515 15.1378 -67.4775 15.75 -67.4672 15.855C-67.3672 16.7813 -67.1077 17.6833 -66.7003 18.5212C-66.6548 18.6147 -66.5876 18.6959 -66.5044 18.7582C-66.4212 18.8205 -66.3243 18.862 -66.2218 18.8793C-66.1193 18.8966 -66.0142 18.8893 -65.9151 18.8578C-65.816 18.8263 -65.7259 18.7717 -65.6522 18.6984L-64.1822 17.2378C-64.1041 17.1605 -64.0472 17.0646 -64.0166 16.959C-63.9861 16.8535 -63.9831 16.742 -64.0078 16.635L-64.1344 16.11C-64.7513 13.5065 -63.1266 10.9012 -60.5035 10.2881C-59.3027 10.0069 -58.0402 10.1883 -56.9672 10.7962L-56.3194 11.1656C-56.1953 11.2357 -56.0518 11.2635 -55.9105 11.2447C-55.7693 11.2259 -55.638 11.1616 -55.5366 11.0615L-49.5375 5.10653C-49.4718 5.04178 -49.4209 4.96366 -49.388 4.87748C-49.3552 4.79129 -49.3413 4.69906 -49.3473 4.60702C-49.3532 4.51499 -49.3789 4.42532 -49.4226 4.34409C-49.4662 4.26285 -49.5269 4.19196 -49.6003 4.13622L-50.4816 3.46403L-50.4806 3.46309ZM-25.8206 19.0106C-25.9304 18.9227 -26.0677 18.8763 -26.2083 18.8796C-26.3488 18.8829 -26.4838 18.9355 -26.5894 19.0284C-27.5306 19.7531 -28.6219 20.4234 -30.2175 20.4234C-33.1369 20.4234 -35.5116 17.9831 -35.5116 14.9803C-35.5116 11.9784 -33.1453 9.51559 -30.2381 9.51559C-28.9753 9.51559 -27.6113 10.0434 -26.6091 10.9172C-26.4938 11.0484 -26.3278 11.1234 -26.1516 11.1206C-26.0768 11.1146 -26.0043 11.0924 -25.9389 11.0557C-25.8735 11.019 -25.8169 10.9685 -25.7728 10.9078L-24.8231 9.93747C-24.7627 9.87963 -24.715 9.80982 -24.683 9.7325C-24.651 9.65518 -24.6355 9.57205 -24.6375 9.48841C-24.6411 9.40357 -24.6623 9.32039 -24.6995 9.24409C-24.7368 9.16778 -24.7894 9.09999 -24.8541 9.04497C-26.5135 7.61059 -28.1785 6.97122 -30.2606 6.97122C-34.7063 6.97122 -38.3231 10.5843 -38.3231 15.0243C-38.3194 19.4437 -34.7128 23.0259 -30.2606 23.0334C-28.2349 23.0583 -26.282 22.2784 -24.8306 20.865C-24.7678 20.8016 -24.7184 20.7261 -24.6853 20.6432C-24.6523 20.5602 -24.6364 20.4714 -24.6385 20.3822C-24.6403 20.3112 -24.6565 20.2413 -24.686 20.1767C-24.7155 20.1121 -24.7576 20.0542 -24.81 20.0062L-25.8206 19.0106ZM-18.9085 7.18965H-20.3475C-20.5073 7.19456 -20.6591 7.26009 -20.7723 7.37292C-20.8855 7.48575 -20.9515 7.63743 -20.9569 7.79715V22.214C-20.9475 22.545 -20.6803 22.8122 -20.3475 22.8234H-18.9085C-18.7484 22.8185 -18.5963 22.7527 -18.483 22.6395C-18.3698 22.5262 -18.304 22.3741 -18.2991 22.214V7.79715C-18.3043 7.63736 -18.3702 7.48555 -18.4834 7.37267C-18.5966 7.2598 -18.7486 7.19434 -18.9085 7.18965ZM-1.88626 12.0422C-1.88626 9.36653 -4.10532 7.18965 -6.83251 7.18965H-12.765C-12.9262 7.1899 -13.0808 7.25392 -13.195 7.36775C-13.3091 7.48157 -13.3736 7.63594 -13.3744 7.79715V22.214C-13.3744 22.5487 -13.1025 22.8215 -12.765 22.8234H-11.3475C-11.1875 22.8185 -11.0353 22.7527 -10.9221 22.6395C-10.8089 22.5262 -10.7431 22.3741 -10.7381 22.214V16.8515H-7.76532L-4.9172 22.5122C-4.86491 22.6052 -4.78863 22.6826 -4.6963 22.7362C-4.60397 22.7898 -4.49895 22.8176 -4.3922 22.8168H-2.69344C-2.58617 22.8206 -2.47979 22.7961 -2.38499 22.7458C-2.29021 22.6954 -2.21034 22.621 -2.15345 22.53C-2.09939 22.4343 -2.07098 22.3263 -2.07098 22.2164C-2.07098 22.1065 -2.09939 21.9985 -2.15345 21.9028L-5.04376 16.5572C-3.09095 15.6965 -1.88626 13.9837 -1.88626 12.0422ZM-4.54501 12.0862C-4.54501 13.4437 -5.67283 14.5931 -7.00689 14.5931H-10.6931V9.68997H-7.01251C-5.6747 9.68997 -4.5497 10.7868 -4.5497 12.0862H-4.54501ZM13.5956 19.0106C13.4858 18.9227 13.3486 18.8763 13.208 18.8796C13.0674 18.8829 12.9325 18.9355 12.8269 19.0284C11.8856 19.7531 10.7944 20.4234 9.19874 20.4234C6.27937 20.4234 3.90374 17.9831 3.90374 14.9803C3.90374 11.9784 6.26905 9.51559 9.17624 9.51559C10.44 9.51559 11.8031 10.0434 12.8072 10.9172C12.8642 10.9832 12.9351 11.0356 13.0149 11.0708C13.0947 11.106 13.1813 11.123 13.2684 11.1206C13.3432 11.1146 13.4157 11.0924 13.4811 11.0557C13.5465 11.019 13.6032 10.9685 13.6472 10.9078L14.5969 9.93747C14.7187 9.81934 14.7844 9.65622 14.7816 9.48841C14.7784 9.40357 14.7576 9.32033 14.7204 9.24398C14.6833 9.16763 14.6307 9.09985 14.5659 9.04497C12.9112 7.61059 11.2453 6.97122 9.16312 6.97122C4.71749 6.97122 1.10062 10.5843 1.10062 15.0243C1.10436 19.4437 4.71092 23.0259 9.16312 23.0334C11.1888 23.0581 13.1416 22.2783 14.5931 20.865C14.6562 20.8015 14.7057 20.7259 14.7388 20.6428C14.7718 20.5596 14.7876 20.4707 14.7853 20.3812C14.7835 20.3102 14.7673 20.2404 14.7378 20.1758C14.7084 20.1112 14.6662 20.0532 14.6137 20.0053L13.5956 19.0106ZM26.8256 20.4028H21.1172V7.79715C21.1118 7.63743 21.0458 7.48575 20.9326 7.37292C20.8194 7.26009 20.6675 7.19456 20.5078 7.18965H19.0687C18.9074 7.18965 18.7527 7.2536 18.6385 7.36747C18.5243 7.48135 18.4599 7.63586 18.4594 7.79715V22.214C18.4594 22.5487 18.7312 22.8215 19.0687 22.8234H26.8256C26.9058 22.8237 26.9852 22.8081 27.0594 22.7776C27.1335 22.747 27.2009 22.7022 27.2577 22.6456C27.3145 22.589 27.3596 22.5217 27.3903 22.4477C27.421 22.3736 27.4369 22.2942 27.4369 22.214V21.0168C27.4375 20.9367 27.4223 20.8571 27.3921 20.7829C27.3619 20.7086 27.3174 20.641 27.261 20.5839C27.2047 20.5269 27.1376 20.4815 27.0637 20.4504C26.9898 20.4193 26.9105 20.4031 26.8303 20.4028H26.8256ZM39.7472 9.62809C39.9086 9.62809 40.0634 9.56418 40.1777 9.45033C40.2921 9.33648 40.3567 9.18197 40.3575 9.02059V7.80184C40.3572 7.64014 40.2928 7.48515 40.1784 7.37089C40.064 7.25664 39.9089 7.19247 39.7472 7.19247H31.0331C30.8715 7.19247 30.7165 7.25667 30.6022 7.37095C30.4879 7.48523 30.4237 7.64023 30.4237 7.80184V22.2178C30.4237 22.5525 30.6966 22.8253 31.0331 22.8272H39.7472C39.9089 22.8272 40.064 22.763 40.1784 22.6487C40.2928 22.5345 40.3572 22.3795 40.3575 22.2178V21.0206C40.357 20.8591 40.2925 20.7043 40.1781 20.5902C40.0637 20.4762 39.9087 20.4122 39.7472 20.4122H33.0544V16.1109H38.6756C38.8371 16.1109 38.992 16.047 39.1065 15.9332C39.221 15.8194 39.2859 15.6649 39.2869 15.5034V14.2847C39.2821 14.1242 39.2162 13.9717 39.1025 13.8584C38.9888 13.745 38.8361 13.6795 38.6756 13.6753H33.0581V9.62903L39.7472 9.62809Z" fill="white" style="fill:white;fill-opacity:1;"/>
</g>
</g>
</g>
<g clip-path="url(#clip2_1_23)">
<g clip-path="url(#clip3_1_23)">
<mask id="mask2_1_23" style="mask-type:luminance" maskUnits="userSpaceOnUse" x="138" y="0" width="93" height="30">
<path d="M138.232 0H230.107V30H138.232V0Z" fill="white" style="fill:white;fill-opacity:1;"/>
</mask>
<g mask="url(#mask2_1_23)">
<path fill-rule="evenodd" clip-rule="evenodd" d="M154.296 30H153.232C144.948 30 138.232 23.2843 138.232 15C138.232 6.71575 144.948 0 153.232 0C161.517 0 168.232 6.71575 168.232 15C168.233 15.7313 168.18 16.4616 168.074 17.1852H165.975C166.097 16.4633 166.159 15.7323 166.158 15C166.158 7.86119 160.371 2.07406 153.232 2.07406C146.094 2.07406 140.307 7.86125 140.307 15C140.307 22.1388 146.094 27.9259 153.232 27.9259H160.92C158.957 29.0961 156.705 29.8317 154.296 30ZM163.794 25.7037H153.232C147.321 25.7037 142.529 20.9115 142.529 15C142.529 9.0885 147.321 4.29625 153.232 4.29625C159.144 4.29625 163.936 9.0885 163.936 15C163.936 15.7483 163.859 16.4792 163.713 17.1852H161.583C161.765 16.488 161.862 15.7559 161.862 15C161.862 10.234 157.998 6.37038 153.232 6.37038C148.466 6.37038 144.603 10.234 144.603 15C144.603 19.766 148.466 23.6296 153.232 23.6296H165.548C165.027 24.3722 164.44 25.0664 163.794 25.7037ZM153.232 21.4074H166.84C167.156 20.7367 167.422 20.0435 167.636 19.3333H153.232C150.839 19.3333 148.899 17.3932 148.899 15C148.899 12.6068 150.839 10.6667 153.232 10.6667C155.626 10.6667 157.566 12.6068 157.566 15C157.566 15.7982 157.351 16.5441 156.976 17.1852H159.257C159.505 16.5028 159.64 15.7668 159.64 15C159.64 11.4613 156.771 8.59256 153.232 8.59256C149.694 8.59256 146.825 11.4613 146.825 15C146.825 18.5387 149.694 21.4074 153.232 21.4074ZM181.754 23.6256C176.819 23.6256 173.821 20.0971 173.821 15.0006C173.821 9.74256 176.98 6.37556 181.754 6.37556C186.666 6.37556 189.71 9.85787 189.71 14.9775C189.71 20.2816 186.527 23.6256 181.754 23.6256ZM181.754 8.65862C178.525 8.65862 176.519 11.1724 176.519 14.9775C176.519 18.8749 178.571 21.2964 181.754 21.2964C185.028 21.2964 187.012 18.7826 187.012 15.0006C187.012 11.1263 184.936 8.65862 181.754 8.65862ZM194.033 23.3949H191.611V11.2646H193.733L194.056 13.5246H194.217C194.978 11.9334 196.454 11.034 198.276 11.034C200.997 11.034 202.473 12.9942 202.473 15.9922V23.3949H200.029V16.2459C200.029 14.1242 199.06 13.1326 197.353 13.1326C195.347 13.1326 194.033 14.7238 194.033 17.03V23.3949ZM215.988 23.3949V6.42169H213.544V13.6169H213.405C212.782 12.1179 211.353 11.034 209.277 11.034C206.21 11.034 204.134 13.4785 204.134 17.422C204.134 21.2272 206.141 23.6256 209.254 23.6256C211.145 23.6256 212.759 22.7262 213.405 21.2502H213.544L213.821 23.3949H215.988ZM213.544 18.0447C213.544 20.051 212.114 21.55 209.992 21.55C207.962 21.55 206.625 20.1433 206.625 17.422C206.625 14.8161 207.824 13.1326 210.038 13.1326C212.044 13.1326 213.544 14.4932 213.544 16.7071V18.0447ZM223.732 23.6256C220.181 23.6256 217.828 21.0658 217.828 17.3528C217.828 13.6169 220.181 11.034 223.732 11.034C227.284 11.034 229.612 13.6169 229.612 17.3528C229.612 21.0658 227.284 23.6256 223.732 23.6256ZM223.732 13.1326C221.633 13.1326 220.319 14.7469 220.319 17.3298C220.319 19.8666 221.564 21.5039 223.732 21.5039C225.807 21.5039 227.122 19.9358 227.122 17.3067C227.122 14.8161 225.9 13.1326 223.732 13.1326Z" fill="white" style="fill:white;fill-opacity:1;"/>
</g>
</g>
</g>
<g clip-path="url(#clip4_1_23)">
<g clip-path="url(#clip5_1_23)">
<g clip-path="url(#clip6_1_23)">
<path d="M359.5 20.9167V14.7089L357.361 19.4612H355.485L353.345 14.7089V20.9167H349.838V8.64135H353.668L356.421 14.6738L359.192 8.64135H363.005V20.9167H359.5ZM380.895 15.1333V20.9167H377.388V8.64135H380.12L385.247 15.1333V8.64135H388.755V20.9167H385.949L380.895 15.1333ZM401.03 20.9167V8.64135H406.894C407.491 8.63605 408.082 8.76804 408.62 9.02715C409.133 9.27428 409.594 9.61848 409.977 10.0407C410.358 10.4584 410.66 10.9422 410.868 11.4682C411.081 11.9808 411.192 12.53 411.194 13.085C411.201 13.8152 411.034 14.5365 410.707 15.1894C410.396 15.8201 409.933 16.3636 409.36 16.7711L412.057 20.9342H408.094L405.849 17.5427H404.537V20.9307L401.03 20.9167ZM404.537 14.4564H406.75C406.871 14.4491 406.989 14.4136 407.094 14.3527C407.199 14.2918 407.288 14.2072 407.354 14.1056C407.555 13.8089 407.653 13.4536 407.631 13.0956C407.656 12.7269 407.54 12.3624 407.308 12.0749C407.23 11.9745 407.132 11.8915 407.021 11.8311C406.909 11.7707 406.786 11.7343 406.659 11.7242H404.537V14.4564ZM413.81 20.9167V8.64135H417.317V20.9167H413.81ZM399.276 11.7979V8.64135H390.508V20.9167H399.276V17.7602H394.016V16.1819H399.276V13.3761H394.016V11.7979H399.276ZM424.827 17.7988C425.197 17.8117 425.562 17.7167 425.879 17.5252C426.165 17.3505 426.406 17.1101 426.58 16.8238C426.77 16.5086 426.904 16.1634 426.977 15.8031C427.062 15.4068 427.104 15.0024 427.103 14.5967V8.63434H430.61V14.5967C430.613 15.4415 430.495 16.2825 430.259 17.0938C430.054 17.8304 429.696 18.5153 429.207 19.1035C428.713 19.6779 428.096 20.1334 427.401 20.4362C426.591 20.7783 425.717 20.9445 424.837 20.9237C423.938 20.9481 423.044 20.772 422.221 20.4082C421.527 20.0925 420.914 19.6208 420.432 19.0298C419.955 18.4379 419.605 17.7537 419.405 17.0202C419.187 16.2309 419.078 15.4155 419.082 14.5967V8.63434H422.589V14.5967C422.588 15.0057 422.63 15.4136 422.715 15.8137C422.788 16.1764 422.922 16.524 423.112 16.8413C423.286 17.1278 423.527 17.3683 423.813 17.5427C424.121 17.7201 424.472 17.8088 424.827 17.7988ZM442.012 20.9167V14.7089L439.873 19.4612H438L435.86 14.7089V20.9167H432.353V8.64135H436.183L438.936 14.6738L441.707 8.64135H445.519V20.9167H442.012ZM370.215 12.1486C370.604 12.1485 370.988 12.2346 371.34 12.4009C371.692 12.5672 372.002 12.8094 372.249 13.1101C372.496 13.4108 372.673 13.7626 372.767 14.14C372.862 14.5173 372.871 14.911 372.795 15.2925C372.694 15.8027 372.443 16.2715 372.075 16.6393C371.708 17.0072 371.239 17.2576 370.729 17.359C370.347 17.4348 369.954 17.425 369.576 17.3305C369.199 17.236 368.847 17.059 368.547 16.8123C368.246 16.5657 368.004 16.2554 367.838 15.9039C367.671 15.5523 367.585 15.1683 367.585 14.7794C367.586 14.0821 367.863 13.4137 368.356 12.9206C368.849 12.4276 369.518 12.1497 370.215 12.1486ZM370.215 8.64135C369.001 8.64135 367.815 9.00132 366.805 9.67574C365.796 10.3502 365.009 11.3087 364.545 12.4302C364.08 13.5518 363.959 14.7858 364.195 15.9764C364.432 17.167 365.017 18.2607 365.875 19.119C366.733 19.9774 367.827 20.562 369.018 20.7988C370.208 21.0356 371.442 20.9141 372.564 20.4495C373.685 19.985 374.644 19.1983 375.318 18.1889C375.993 17.1796 376.353 15.993 376.353 14.779C376.353 13.9729 376.195 13.1745 375.887 12.4296C375.579 11.6848 375.127 11.008 374.556 10.4381C373.986 9.86819 373.309 9.4162 372.564 9.10797C371.82 8.79973 371.021 8.64094 370.215 8.64135ZM336.086 22.4248L331.302 17.6374C330.923 17.2642 330.622 16.8192 330.417 16.3285C330.212 15.8377 330.106 15.311 330.106 14.779C330.103 13.7323 330.508 12.7256 331.236 11.9732L331.299 11.9101L332.635 10.5738L330.72 8.66239C330.362 8.30629 330.078 7.88197 329.887 7.41451C329.695 6.94705 329.599 6.44593 329.605 5.94077L327.455 8.09071C326.574 8.96264 325.874 10.0004 325.396 11.1441C324.918 12.2879 324.671 13.5149 324.67 14.7545C324.672 15.9939 324.919 17.2208 325.397 18.3644C325.875 19.508 326.574 20.5459 327.455 21.4182L332.249 26.2127C332.501 26.4666 332.8 26.6685 333.13 26.8066C333.46 26.9448 333.814 27.0165 334.172 27.0178C334.529 27.019 334.884 26.9498 335.214 26.814C335.545 26.6781 335.846 26.4784 336.1 26.2262C336.353 25.974 336.555 25.6743 336.692 25.3442C336.83 25.0141 336.901 24.6602 336.902 24.3025C336.902 23.9449 336.833 23.5906 336.696 23.26C336.56 22.9294 336.36 22.6289 336.107 22.3757L336.086 22.4248ZM338.261 14.7755C338.263 15.8214 337.86 16.8274 337.135 17.5813L335.732 18.9842L337.643 20.8957C338.003 21.2517 338.287 21.6764 338.48 22.1446C338.672 22.6127 338.768 23.1148 338.762 23.6208L340.912 21.4709C341.789 20.6016 342.486 19.5682 342.963 18.4297C343.44 17.2911 343.688 16.0697 343.693 14.8351V14.744C343.685 13.5092 343.433 12.2882 342.952 11.1512C342.47 10.0142 341.769 8.98366 340.887 8.11877L336.09 3.32086C335.569 2.90335 334.913 2.6924 334.247 2.72837C333.581 2.76435 332.951 3.04472 332.479 3.51585C332.006 3.98697 331.724 4.61575 331.686 5.28187C331.648 5.94799 331.858 6.60466 332.274 7.12622L334.185 9.03767L335.385 10.2336L337.061 11.9101C337.439 12.2804 337.74 12.7223 337.946 13.21C338.152 13.6977 338.259 14.2216 338.261 14.751V14.7755Z" fill="white" style="fill:white;fill-opacity:1;"/>
</g>
</g>
</g>
<g clip-path="url(#clip7_1_23)">
<g clip-path="url(#clip8_1_23)">
<g clip-path="url(#clip9_1_23)">
<mask id="mask3_1_23" style="mask-type:luminance" maskUnits="userSpaceOnUse" x="525" y="2" width="122" height="26">
<path d="M525.67 2.18823H646.67V27.8118H525.67V2.18823Z" fill="white" style="fill:white;fill-opacity:1;"/>
</mask>
<g mask="url(#mask3_1_23)">
<mask id="mask4_1_23" style="mask-type:luminance" maskUnits="userSpaceOnUse" x="525" y="2" width="122" height="26">
<path d="M646.195 2.18823H525.67V27.8118H646.195V2.18823Z" fill="white" style="fill:white;fill-opacity:1;"/>
</mask>
<g mask="url(#mask4_1_23)">
<path fill-rule="evenodd" clip-rule="evenodd" d="M532.287 18.03H534.005L533.125 22.6066H536.361L539.264 7.51434C537.477 7.51434 535.755 8.93645 535.417 10.6917L535.094 12.3679H533.329L533.031 13.985H534.784L534.317 16.4121H532.584L532.287 18.03ZM543.668 7.51434H540.433L537.653 22.6294C539.44 22.6294 541.151 21.2044 541.474 19.4478L541.735 18.03H543.606L543.904 16.4121H542.033L542.479 13.985H544.35L544.648 12.3672H542.777L543.668 7.51434Z" fill="white" style="fill:white;fill-opacity:1;"/>
<path fill-rule="evenodd" clip-rule="evenodd" d="M538.482 26.2281C544.683 26.2281 549.71 21.2009 549.71 15C549.71 8.7991 544.683 3.77191 538.482 3.77191C532.281 3.77191 527.254 8.7991 527.254 15C527.254 21.2009 532.281 26.2281 538.482 26.2281ZM538.482 27.8118C545.557 27.8118 551.294 22.0756 551.294 15C551.294 7.92434 545.557 2.18823 538.482 2.18823C531.406 2.18823 525.67 7.92434 525.67 15C525.67 22.0756 531.406 27.8118 538.482 27.8118Z" fill="white" style="fill:white;fill-opacity:1;"/>
<path d="M557.828 22.5924V7.74499H560.917V14.1623H566.697V7.74499H569.786V22.5924H566.697V16.8527H560.917V22.5924H557.828ZM574.976 22.8316C574.192 22.8316 573.515 22.7049 572.943 22.4529C572.372 22.2002 571.933 21.8415 571.628 21.3767C571.322 20.8984 571.17 20.3333 571.17 19.6827C571.17 19.0713 571.309 18.5332 571.588 18.0684C571.867 17.5901 572.293 17.1915 572.864 16.8727C573.448 16.5538 574.173 16.3275 575.036 16.1951L578.364 15.657V17.8492L575.574 18.3474C575.149 18.4272 574.824 18.5667 574.597 18.766C574.372 18.9517 574.259 19.2243 574.259 19.5831C574.259 19.9147 574.385 20.1738 574.637 20.3603C574.89 20.5461 575.202 20.6393 575.574 20.6393C576.065 20.6393 576.497 20.5326 576.869 20.3205C577.229 20.1201 577.526 19.8233 577.726 19.4635C577.938 19.0936 578.048 18.6741 578.045 18.2478V15.4178C578.045 15.0057 577.879 14.6605 577.547 14.3815C577.228 14.1025 576.79 13.963 576.232 13.963C575.725 13.9552 575.23 14.1087 574.817 14.4014C574.418 14.6932 574.126 15.079 573.94 15.5573L571.548 14.4213C571.754 13.8215 572.102 13.281 572.565 12.8469C573.029 12.4085 573.588 12.0697 574.239 11.8305C574.89 11.5914 575.6 11.4718 576.371 11.4718C577.288 11.4718 578.099 11.6376 578.803 11.97C579.507 12.3017 580.052 12.7672 580.437 13.3651C580.835 13.9494 581.035 14.6335 581.035 15.4178V20.2009H582.23V22.5924H578.245V20.8386L578.922 20.719C578.63 21.167 578.274 21.5698 577.866 21.9148C577.481 22.2204 577.041 22.4503 576.57 22.5924C576.092 22.7518 575.561 22.8316 574.976 22.8316ZM587.556 22.8316C586.36 22.8316 585.317 22.5525 584.427 21.9945C583.55 21.423 582.952 20.6593 582.633 19.7026L584.825 18.6663C585.104 19.2507 585.483 19.709 585.961 20.0414C586.44 20.3731 586.971 20.5397 587.556 20.5397C587.981 20.5397 588.307 20.4528 588.532 20.2806C588.758 20.1076 588.871 19.8685 588.871 19.5631C588.876 19.4207 588.834 19.2806 588.752 19.1645C588.658 19.0323 588.535 18.9233 588.393 18.8457C588.204 18.741 588.004 18.6606 587.795 18.6065L585.942 18.0884C585.052 17.8357 584.367 17.4307 583.889 16.8727C583.41 16.3011 583.171 15.6299 583.171 14.8598C583.171 14.1822 583.344 13.5907 583.69 13.0861C584.035 12.5807 584.52 12.1893 585.144 11.9102C585.769 11.6184 586.487 11.4718 587.297 11.4718C588.359 11.4718 589.29 11.7238 590.087 12.2291C590.898 12.7202 591.469 13.4178 591.801 14.3217L589.589 15.358C589.429 14.9061 589.137 14.5473 588.712 14.2818C588.3 14.0028 587.828 13.8633 587.297 13.8633C586.912 13.8633 586.606 13.943 586.38 14.1025C586.167 14.2619 586.061 14.4811 586.061 14.7601C586.061 14.9061 586.101 15.0392 586.181 15.1587C586.26 15.2783 586.387 15.3844 586.559 15.4776C586.745 15.5701 586.971 15.657 587.237 15.7367L588.971 16.2549C589.875 16.5203 590.565 16.9253 591.043 17.4705C591.522 18.0015 591.761 18.6592 591.761 19.4436C591.761 20.1212 591.582 20.7119 591.223 21.2173C590.878 21.7226 590.393 22.1212 589.768 22.413C589.144 22.6921 588.406 22.8316 587.556 22.8316ZM592.95 22.5924V7.50513H595.939V13.8626L595.58 13.3843C595.833 12.733 596.238 12.2547 596.796 11.9494C597.367 11.6305 598.032 11.4711 598.789 11.4711C599.613 11.4711 600.331 11.6433 600.941 11.9892C601.556 12.3245 602.061 12.8295 602.396 13.4441C602.742 14.0548 602.914 14.7722 602.914 15.5965V22.5917H599.925V16.2342C599.925 15.8086 599.839 15.4434 599.666 15.1381C599.509 14.8353 599.267 14.5856 598.968 14.4206C598.676 14.2477 598.331 14.1616 597.932 14.1616C597.57 14.1558 597.212 14.2451 596.896 14.4206C596.595 14.5888 596.346 14.8372 596.178 15.1381C596.019 15.4434 595.939 15.8086 595.939 16.2342V22.5917L592.95 22.5924ZM604.282 22.5924V11.7109H607.072V13.8633L606.913 13.385C607.165 12.7338 607.571 12.2554 608.129 11.9501C608.699 11.6312 609.364 11.4718 610.122 11.4718C610.945 11.4718 611.663 11.644 612.274 11.99C612.888 12.3256 613.393 12.8305 613.729 13.4448C614.074 14.0555 614.247 14.773 614.247 15.5972V22.5924H611.258V16.2349C611.258 15.8093 611.171 15.4449 610.998 15.1388C610.842 14.8361 610.599 14.5865 610.301 14.4213C610.008 14.2484 609.663 14.1623 609.265 14.1623C608.902 14.1562 608.545 14.2455 608.228 14.4213C607.922 14.5936 607.683 14.8327 607.511 15.1388C607.351 15.4449 607.272 15.8093 607.272 16.2349V22.5924H604.282ZM621.016 22.8316C619.94 22.8316 618.956 22.5853 618.066 22.0942C617.202 21.6146 616.475 20.9217 615.954 20.0813C615.436 19.2172 615.177 18.2407 615.177 17.1517C615.177 16.0484 615.436 15.0719 615.954 14.2221C616.475 13.3817 617.202 12.6888 618.066 12.2092C618.956 11.7181 619.94 11.4718 621.016 11.4718C622.092 11.4718 623.069 11.7174 623.945 12.2092C624.807 12.6859 625.528 13.3798 626.038 14.2221C626.569 15.0719 626.835 16.0484 626.835 17.1517C626.835 18.2407 626.569 19.2172 626.038 20.0813C625.528 20.9235 624.807 21.6175 623.945 22.0942C623.069 22.5853 622.092 22.8316 621.016 22.8316ZM621.016 20.1411C621.56 20.1411 622.032 20.0144 622.431 19.7624C622.844 19.5085 623.176 19.1421 623.387 18.7062C623.627 18.2542 623.746 17.736 623.746 17.1517C623.746 16.5666 623.627 16.0556 623.387 15.6171C623.175 15.1813 622.844 14.8149 622.431 14.5609C622.032 14.2947 621.56 14.1623 621.016 14.1623C620.471 14.1623 619.992 14.2947 619.581 14.5609C619.165 14.8173 618.828 15.1826 618.604 15.6171C618.378 16.0556 618.266 16.5666 618.266 17.1517C618.266 17.736 618.378 18.2549 618.604 18.7062C618.844 19.1574 619.169 19.5105 619.581 19.7624C619.992 20.0144 620.471 20.1411 621.016 20.1411ZM633.045 22.712C631.729 22.712 630.707 22.3597 629.976 21.6557C629.258 20.9383 628.899 19.9418 628.899 18.6663V14.3018H627.066V11.7109H627.166C627.724 11.7109 628.149 11.5714 628.441 11.2924C628.747 11.0134 628.899 10.5949 628.899 10.0369V9.2397H631.889V11.7109H634.44V14.3018H631.889V18.467C631.889 18.8386 631.956 19.151 632.088 19.4037C632.221 19.6429 632.427 19.8222 632.706 19.9418C632.985 20.0614 633.331 20.1212 633.742 20.1212C633.835 20.1212 633.942 20.114 634.061 20.1012C634.181 20.0877 634.307 20.0742 634.44 20.0614V22.5924C634.24 22.6187 634.015 22.6451 633.762 22.6721C633.524 22.698 633.284 22.7113 633.045 22.712ZM640.836 22.8316C639.68 22.8316 638.676 22.5789 637.826 22.0742C636.993 21.5745 636.311 20.8582 635.853 20.0016C635.388 19.1375 635.156 18.1809 635.156 17.1317C635.156 16.0427 635.395 15.0719 635.873 14.2221C636.345 13.3913 637.025 12.6976 637.846 12.2092C638.67 11.7181 639.6 11.4718 640.636 11.4718C641.5 11.4718 642.263 11.6113 642.928 11.8903C643.592 12.1558 644.15 12.5345 644.602 13.0263C645.068 13.5193 645.428 14.1026 645.659 14.7402C645.898 15.378 646.017 16.0755 646.017 16.8328C646.017 17.0449 646.004 17.2577 645.977 17.4705C645.964 17.6698 645.93 17.8421 645.878 17.9887H637.727V15.7965H644.184L642.769 16.8328C642.901 16.2613 642.895 15.7566 642.749 15.3182C642.602 14.8662 642.343 14.5139 641.972 14.2619C641.613 13.9957 641.167 13.8633 640.636 13.8633C640.118 13.8633 639.673 13.9893 639.301 14.242C638.929 14.4939 638.65 14.8662 638.464 15.358C638.278 15.8491 638.205 16.447 638.245 17.1517C638.191 17.7624 638.265 18.3005 638.464 18.766C638.651 19.2162 638.971 19.5987 639.381 19.8621C639.792 20.114 640.29 20.2407 640.876 20.2407C641.407 20.2407 641.858 20.134 642.231 19.9219C642.616 19.709 642.915 19.4165 643.128 19.045L645.519 20.1809C645.299 20.722 644.95 21.201 644.503 21.576C644.051 21.9746 643.513 22.2863 642.888 22.5127C642.263 22.7248 641.579 22.8316 640.836 22.8316Z" fill="white" style="fill:white;fill-opacity:1;"/>
</g>
</g>
</g>
</g>
</g>
<g clip-path="url(#clip10_1_23)">
<g clip-path="url(#clip11_1_23)">
<path d="M757.609 28.1852C755.832 28.1852 754.109 27.8369 752.485 27.1505C750.917 26.4873 749.51 25.5381 748.301 24.3297C747.093 23.1214 746.143 21.7133 745.48 20.1455C744.794 18.522 744.445 16.7982 744.445 15.0214C744.445 13.2446 744.794 11.5208 745.48 9.89723C746.143 8.32943 747.093 6.92231 748.301 5.71302C749.51 4.50466 750.917 3.55544 752.485 2.89228C754.109 2.2059 755.832 1.8576 757.609 1.8576C759.386 1.8576 761.11 2.2059 762.733 2.89228C764.301 3.55544 765.708 4.50466 766.918 5.71302C768.126 6.92138 769.075 8.32943 769.738 9.89723C770.425 11.5208 770.773 13.2446 770.773 15.0214C770.773 16.7982 770.425 18.522 769.738 20.1455C769.075 21.7133 768.126 23.1205 766.918 24.3297C765.709 25.5381 764.301 26.4873 762.733 27.1505C761.11 27.8378 759.386 28.1852 757.609 28.1852Z" fill="black" style="fill:black;fill-opacity:1;"/>
<path d="M757.609 27.4876C764.494 27.4876 770.076 21.9063 770.076 15.0214C770.076 8.13642 764.494 2.55511 757.609 2.55511C750.724 2.55511 745.143 8.13642 745.143 15.0214C745.143 21.9063 750.724 27.4876 757.609 27.4876Z" fill="white" style="fill:white;fill-opacity:1;"/>
<path d="M764.176 15.0214C764.176 13.6858 763.775 12.443 763.087 11.4046L765.126 9.36594L763.293 7.5325L761.259 9.56563C760.181 8.84007 758.91 8.45325 757.61 8.45479C756.275 8.45479 755.032 8.85603 753.994 9.54334L751.954 7.50464L750.12 9.33808L752.154 11.3712C751.428 12.4498 751.041 13.7205 751.043 15.0204C751.043 16.356 751.444 17.5988 752.131 18.6371L750.093 20.6768L751.926 22.5102L753.959 20.4771C755.038 21.2026 756.308 21.5895 757.608 21.5879C758.944 21.5879 760.187 21.1867 761.225 20.4994L763.265 22.539L765.098 20.7056L763.065 18.6724C763.766 17.6266 764.176 16.3709 764.176 15.0214ZM753.637 15.0214C753.637 12.8303 755.419 11.048 757.61 11.048C759.801 11.048 761.584 12.8303 761.584 15.0214C761.584 17.2124 759.801 18.9947 757.61 18.9947C755.419 18.9947 753.637 17.2124 753.637 15.0214Z" fill="black" style="fill:black;fill-opacity:1;"/>
<path d="M779.316 24.4273V6.02789H791.46V9.41864H783.259V13.7293H789.988V16.9624H783.259V24.4273H779.316ZM800.125 10.9169H800.756V14.2813H799.284C797.076 14.2813 796.235 15.7533 796.235 17.8035V24.4273H792.529V10.9169H795.893L796.235 12.9408C796.971 11.7317 798.022 10.9169 800.125 10.9169ZM814.957 21.2994H815.378V24.4273H813.485C811.566 24.4273 810.962 23.5073 810.988 22.2193C810.042 23.7176 808.675 24.585 806.572 24.585C803.655 24.585 801.552 23.1919 801.552 20.616C801.552 17.7509 803.707 16.1213 807.755 16.1213H810.436V15.4641C810.436 14.255 809.569 13.4665 808.018 13.4665C806.572 13.4665 805.6 14.1236 805.442 15.1224H801.867C802.13 12.494 804.548 10.7592 808.123 10.7592C811.908 10.7592 814.09 12.4414 814.09 15.6744V20.4583C814.09 21.168 814.379 21.2994 814.957 21.2994ZM810.436 18.8549V18.592H807.729C806.178 18.592 805.284 19.2229 805.284 20.3531C805.284 21.2994 806.047 21.9039 807.282 21.9039C809.227 21.9039 810.41 20.6948 810.436 18.8549ZM815.445 24.4273L820.465 17.5406L815.681 10.9169H819.913L822.699 14.9122L825.564 10.9169H829.56L824.802 17.5406L829.822 24.4273H825.59L822.489 20.1954L819.414 24.4273H815.445Z" fill="white" style="fill:white;fill-opacity:1;"/>
</g>
</g>
<g clip-path="url(#clip12_1_23)">
<g clip-path="url(#clip13_1_23)">
<path fill-rule="evenodd" clip-rule="evenodd" d="M958.461 0.805725H963.738V28.9414H958.461V27.8914C956.887 28.7493 955.122 29.1973 953.329 29.1943C947.422 29.1943 942.634 24.4286 942.634 18.5475C942.634 12.6654 947.424 7.90287 953.329 7.90287C955.188 7.90287 956.94 8.3743 958.461 9.2068V0.805725ZM953.271 24.5218C956.614 24.5218 959.328 21.8218 959.328 18.4918C959.328 15.1629 956.617 12.4629 953.271 12.4629C949.925 12.4629 947.215 15.1629 947.215 18.4918C947.215 21.8207 949.925 24.5218 953.271 24.5218Z" fill="white" style="fill:white;fill-opacity:1;"/>
</g>
</g>
</g>
<defs>
<linearGradient id="paint0_linear_1_23" x1="0" y1="15" x2="944" y2="15" gradientUnits="userSpaceOnUse">
<stop stop-opacity="0" style="stop-color:none;stop-opacity:0;"/>
<stop offset="0.15" style="stop-color:black;stop-opacity:1;"/>
<stop offset="0.85" style="stop-color:black;stop-opacity:1;"/>
<stop offset="1" stop-opacity="0" style="stop-color:none;stop-opacity:0;"/>
</linearGradient>
<clipPath id="clip0_1_23">
<rect x="-77.33" width="121" height="30" rx="10" fill="white" style="fill:white;fill-opacity:1;"/>
</clipPath>
<clipPath id="clip1_1_23">
<rect width="114.375" height="30" fill="white" style="fill:white;fill-opacity:1;" transform="translate(-74.0175)"/>
</clipPath>
<clipPath id="clip2_1_23">
<rect x="123.67" width="121" height="30" rx="10" fill="white" style="fill:white;fill-opacity:1;"/>
</clipPath>
<clipPath id="clip3_1_23">
<rect width="91.875" height="30" fill="white" style="fill:white;fill-opacity:1;" transform="translate(138.232)"/>
</clipPath>
<clipPath id="clip4_1_23">
<rect x="324.67" width="121" height="30" rx="10" fill="white" style="fill:white;fill-opacity:1;"/>
</clipPath>
<clipPath id="clip5_1_23">
<rect width="121" height="30" fill="white" style="fill:white;fill-opacity:1;" transform="translate(324.67)"/>
</clipPath>
<clipPath id="clip6_1_23">
<rect width="121" height="24.5507" fill="white" style="fill:white;fill-opacity:1;" transform="translate(324.67 2.72461)"/>
</clipPath>
<clipPath id="clip7_1_23">
<rect x="525.67" width="121" height="30" rx="10" fill="white" style="fill:white;fill-opacity:1;"/>
</clipPath>
<clipPath id="clip8_1_23">
<rect width="121" height="30" fill="white" style="fill:white;fill-opacity:1;" transform="translate(525.67)"/>
</clipPath>
<clipPath id="clip9_1_23">
<rect width="121" height="25.6235" fill="white" style="fill:white;fill-opacity:1;" transform="translate(525.67 2.18823)"/>
</clipPath>
<clipPath id="clip10_1_23">
<rect x="726.67" width="121" height="30" rx="10" fill="white" style="fill:white;fill-opacity:1;"/>
</clipPath>
<clipPath id="clip11_1_23">
<rect width="85.4489" height="30" fill="white" style="fill:white;fill-opacity:1;" transform="translate(744.445)"/>
</clipPath>
<clipPath id="clip12_1_23">
<rect x="927.67" width="121" height="30" rx="10" fill="white" style="fill:white;fill-opacity:1;"/>
</clipPath>
<clipPath id="clip13_1_23">
<rect width="91.0714" height="30" fill="white" style="fill:white;fill-opacity:1;" transform="translate(942.634)"/>
</clipPath>
</defs>
</svg>
