<svg width="40" height="26" viewBox="0 0 40 26" fill="none" xmlns="http://www.w3.org/2000/svg">
<path d="M0.227306 14.0695C0.145514 14.0309 0.0902179 13.9715 0.0413607 13.8984C-0.0146946 13.8053 -0.0105463 13.6906 0.0344929 13.5951L5.24083 0.233737C5.2923 0.124681 5.36461 0.0421265 5.47857 0.0125718C5.59254 -0.0169829 5.71446 0.00722622 5.80345 0.0658976L39.8433 24.5002C39.994 24.6047 40.0459 24.8126 39.9551 24.9697C39.8779 25.1333 39.6908 25.2117 39.5144 25.1618L0.2682 14.0888C0.2682 14.0888 0.227303 14.0695 0.213671 14.0631L0.227306 14.0695ZM5.76953 0.950008L0.888283 13.4814L37.6642 23.8551L5.75591 0.943577L5.76953 0.950008Z" fill="#6495FF" style="fill:#6495FF;fill:color(display-p3 0.3936 0.5857 1.0000);fill-opacity:1;"/>
</svg>
