<svg width="30" height="36" viewBox="0 0 30 36" fill="none" xmlns="http://www.w3.org/2000/svg">
<path d="M28.8727 35.9854C28.8727 35.9854 28.8181 35.9597 28.7908 35.9468L0.142124 13.8917C0.045764 13.8128 -0.00394427 13.7059 0.000206493 13.5909C0.00435807 13.476 0.0623696 13.3531 0.148459 13.2768L18.8044 0.0732577C18.9041 0.00344556 19.0319 -0.0197164 19.1476 0.0181929C19.2569 0.0697592 19.3533 0.148635 19.3829 0.262802L29.3756 35.5215C29.4197 35.6758 29.356 35.8462 29.2297 35.9368C29.1098 36.0139 28.9748 36.0169 28.8655 35.9654L28.8727 35.9854ZM1.01373 13.6017L28.3494 34.653L18.8186 0.998401L1.01373 13.6017Z" fill="#6495FF" style="fill:#6495FF;fill:color(display-p3 0.3936 0.5857 1.0000);fill-opacity:1;"/>
</svg>
