<svg width="28" height="34" viewBox="0 0 28 34" fill="none" xmlns="http://www.w3.org/2000/svg">
<path d="M11.6914 33.9594C11.5952 33.9141 11.5323 33.834 11.496 33.7329L0.022041 0.504931C-0.0287244 0.363406 0.00863775 0.213085 0.128406 0.101666C0.241692 0.00398202 0.39047 -0.0265709 0.534303 0.0245224L27.4452 11.3995C27.555 11.4513 27.6317 11.5379 27.6615 11.6527C27.6913 11.7676 27.6734 11.8767 27.6078 11.9801L12.1709 33.8331C12.0851 33.9437 11.9508 34.0147 11.8077 33.9975C11.7803 33.9846 11.7326 33.9789 11.7051 33.9659L11.6914 33.9594ZM1.01327 1.07355L11.9708 32.7981L26.7032 11.9394L1.01327 1.07355Z" fill="#6495FF" style="fill:#6495FF;fill:color(display-p3 0.3936 0.5857 1.0000);fill-opacity:1;"/>
</svg>
