<svg width="22" height="40" viewBox="0 0 22 40" fill="none" xmlns="http://www.w3.org/2000/svg">
<path d="M21.4609 39.5337C21.4609 39.5337 21.4336 39.5208 21.4199 39.5144L0.186717 26.9375C0.0911206 26.8924 0.0212944 26.7926 0.00534318 26.6849C-0.0106081 26.5772 0.0072119 26.4687 0.0796462 26.386L19.9943 0.149678C20.086 0.026003 20.2605 -0.0252398 20.41 0.0119055C20.5667 0.0691533 20.671 0.201898 20.6813 0.357038L21.9998 39.1702C22.0029 39.3053 21.9385 39.4418 21.8114 39.4988C21.698 39.5621 21.5766 39.5716 21.4673 39.5201L21.4609 39.5337ZM0.940326 26.5083L21.2081 38.5126L19.9429 1.46136L0.926676 26.5019L0.940326 26.5083Z" fill="#6495FF" style="fill:#6495FF;fill:color(display-p3 0.3936 0.5857 1.0000);fill-opacity:1;"/>
</svg>
