<svg width="40" height="26" viewBox="0 0 40 26" fill="none" xmlns="http://www.w3.org/2000/svg">
<path d="M8.63657 25.5213C8.53978 25.4757 8.47639 25.395 8.43989 25.2933L0.0197015 0.506355C-0.0241025 0.384237 0.0069706 0.246744 0.0933597 0.135354C0.179749 0.0239652 0.315694 -0.0133122 0.459713 0.0039424L39.6873 7.08987C39.8451 7.11366 39.9711 7.24075 39.9953 7.40435C40.0196 7.56795 39.9478 7.72004 39.8061 7.80533L8.99872 25.5063C8.90425 25.5632 8.78137 25.5728 8.66423 25.5344C8.66423 25.5344 8.65039 25.5279 8.63657 25.5213ZM0.95837 0.88177L9.01276 24.6169L38.5172 7.67039L0.95837 0.88177Z" fill="#6495FF" style="fill:#6495FF;fill:color(display-p3 0.3936 0.5857 1.0000);fill-opacity:1;"/>
</svg>
