<svg width="47" height="49" viewBox="0 0 47 49" fill="none" xmlns="http://www.w3.org/2000/svg">
<path d="M17.9387 48.8674C17.9387 48.8674 17.9113 48.8545 17.8976 48.848L0.177145 38.3575C0.0675952 38.3058 0.0105193 38.1784 0.000987674 38.0567C-0.00854398 37.935 0.0496235 37.8118 0.149642 37.7418L46.3869 0.0892255C46.5264 -0.029089 46.7296 -0.0336722 46.868 0.0986638C47.013 0.217305 47.0377 0.413168 46.9465 0.571029L18.4297 48.714C18.3845 48.8099 18.2909 48.8662 18.1966 48.8887C18.116 48.9176 18.0209 48.9062 17.9387 48.8674ZM1.04237 37.9789L17.9599 48.0067L45.2047 2.02619L1.03591 37.9926L1.04237 37.9789Z" fill="#6495FF" style="fill:#6495FF;fill:color(display-p3 0.3936 0.5857 1.0000);fill-opacity:1;"/>
</svg>
