<svg width="32" height="35" viewBox="0 0 32 35" fill="none" xmlns="http://www.w3.org/2000/svg">
<path d="M3.28961 34.9707C3.28961 34.9707 3.26206 34.9577 3.23453 34.9447C3.13089 34.879 3.08079 34.7712 3.06471 34.6626L0.000823288 0.42455C-0.00953014 0.26816 0.0757039 0.123222 0.19652 0.0455775C0.331102 -0.0255694 0.494774 -0.0156522 0.612948 0.0906258L31.4902 25.1181C31.6011 25.2042 31.652 25.346 31.621 25.4829C31.5901 25.6198 31.5041 25.7307 31.3622 25.7816L3.54886 34.9921C3.54886 34.9921 3.35193 35.017 3.26933 34.978L3.28961 34.9707ZM0.843342 1.24305L3.7808 34.1084L30.4788 25.2636L0.843342 1.24305Z" fill="#6495FF" style="fill:#6495FF;fill:color(display-p3 0.3936 0.5857 1.0000);fill-opacity:1;"/>
</svg>
