<svg width="28" height="37" viewBox="0 0 28 37" fill="none" xmlns="http://www.w3.org/2000/svg">
<path d="M0.234539 36.4337C0.234539 36.4337 0.179613 36.4078 0.152148 36.3949C0.0415214 36.3091 -0.00923995 36.1676 0.00141546 36.0383L5.23773 0.325638C5.25487 0.182602 5.36088 0.0647306 5.50237 0.0139752C5.63739 -0.0230479 5.78768 0.0143003 5.89183 0.113832L27.8974 23.9672C27.9741 24.0538 28.0176 24.175 27.9932 24.2979C27.9688 24.4207 27.8895 24.5176 27.7819 24.5676L0.519851 36.4341C0.412299 36.4841 0.296728 36.4799 0.200601 36.4345L0.234539 36.4337ZM5.90996 1.21384L0.878201 35.4614L27.0171 24.089L5.90996 1.21384Z" fill="#6495FF" style="fill:#6495FF;fill:color(display-p3 0.3936 0.5857 1.0000);fill-opacity:1;"/>
</svg>
