<svg width="29" height="31" viewBox="0 0 29 31" fill="none" xmlns="http://www.w3.org/2000/svg">
<path d="M16.282 30.955C16.2129 30.9224 16.143 30.8557 16.1073 30.7881L0.0433374 0.564733C-0.0280752 0.429648 -0.0115973 0.251557 0.0950777 0.132942C0.201753 0.0143269 0.357935 -0.030219 0.502639 0.0211834L28.6142 9.91035C28.7248 9.96252 28.8085 10.0358 28.8449 10.1375C28.8814 10.2392 28.8707 10.3693 28.8112 10.4595L16.7571 30.8076C16.6984 30.9319 16.5633 31.0034 16.4129 30.9999C16.3649 30.9942 16.3031 30.9819 16.2616 30.9623L16.282 30.955ZM1.17565 1.06538L16.4614 29.8232L27.9296 10.4658L1.17565 1.06538Z" fill="#6495FF" style="fill:#6495FF;fill:color(display-p3 0.3936 0.5857 1.0000);fill-opacity:1;"/>
</svg>
