<svg width="31" height="31" viewBox="0 0 31 31" fill="none" xmlns="http://www.w3.org/2000/svg">
<path d="M30.0179 30.9706C30.0179 30.9706 29.9902 30.9576 29.9764 30.9511L0.185825 13.3065C0.0752305 13.2543 0.0110996 13.1395 0.00147785 13.0166C-0.00814468 12.8938 0.0302252 12.7766 0.117374 12.6994L13.8368 0.107095C13.9239 0.0298994 14.046 -0.0139168 14.1558 0.00410946C14.2656 0.0221356 14.3632 0.101997 14.4338 0.202969L30.505 30.4399C30.5838 30.5954 30.5469 30.7809 30.4264 30.893C30.3058 31.0051 30.1423 31.0294 30.004 30.9641L30.0179 30.9706ZM1.03167 12.9112L29.2074 29.6077L14.0074 0.999025L1.03167 12.9112Z" fill="#6495FF" style="fill:#6495FF;fill:color(display-p3 0.3936 0.5857 1.0000);fill-opacity:1;"/>
</svg>
