<svg width="30" height="27" viewBox="0 0 30 27" fill="none" xmlns="http://www.w3.org/2000/svg">
<path d="M0.421368 26.9585C0.421368 26.9585 0.394145 26.9456 0.380533 26.9392C0.258022 26.8814 0.201278 26.7547 0.198228 26.6201L0.000869846 0.377915C-0.00860504 0.256929 0.0628289 0.140849 0.14864 0.0648371C0.248064 -0.00474941 0.389085 -0.0214045 0.497984 0.0299948L28.9704 11.1884C29.1065 11.2527 29.1969 11.3786 29.2136 11.5196C29.2302 11.6606 29.1459 11.8039 29.0129 11.8743L0.737827 26.9581C0.631216 27.0076 0.510231 27.0171 0.401331 26.9657L0.421368 26.9585ZM0.754117 0.933198L0.938414 26.0041L27.9428 11.6022L0.754117 0.933198Z" fill="#6495FF" style="fill:#6495FF;fill:color(display-p3 0.3936 0.5857 1.0000);fill-opacity:1;"/>
</svg>
