<svg width="46" height="57" viewBox="0 0 46 57" fill="none" xmlns="http://www.w3.org/2000/svg">
<path d="M24.2026 56.9293C24.2026 56.9293 24.1752 56.9164 24.1614 56.9099L0.184546 42.7061C0.0747379 42.6543 0.0110428 42.5403 0.00148864 42.4183C-0.0080655 42.2963 0.0300429 42.1801 0.116571 42.1034L45.3682 0.10264C45.4944 -0.0224323 45.6843 -0.0335337 45.836 0.0716615C45.9741 0.170379 46.0393 0.352234 45.9753 0.523426L24.7005 56.728C24.6551 56.824 24.5759 56.9209 24.4748 56.9571C24.3738 56.9934 24.2785 56.9819 24.1961 56.9431L24.2026 56.9293ZM1.01788 42.3274L24.1689 56.0407L44.7136 1.77413L1.01788 42.3274Z" fill="#6495FF" style="fill:#6495FF;fill:color(display-p3 0.3936 0.5857 1.0000);fill-opacity:1;"/>
</svg>
