<svg width="70" height="30" viewBox="0 0 70 30" fill="none" xmlns="http://www.w3.org/2000/svg">
<path d="M0.219227 28.6052C0.219227 28.6052 0.110248 28.5537 0.0750517 28.4872C0.00542363 28.3877 -0.0176634 28.2602 0.0137177 28.1584L8.56481 0.267117C8.5962 0.165345 8.66843 0.0828617 8.77511 0.0332825C8.87535 -0.00267609 8.9828 -0.0185893 9.09176 0.032841L69.7874 28.4975C69.9508 28.5747 70.0356 28.7479 69.9857 28.9242C69.9558 29.0934 69.797 29.2182 69.615 29.2156L0.374705 28.6286C0.374705 28.6286 0.266518 28.6108 0.225657 28.5915L0.219227 28.6052ZM9.1517 0.893872L0.876586 27.8828L67.8932 28.4529L9.1517 0.893872Z" fill="#6495FF" style="fill:#6495FF;fill:color(display-p3 0.3936 0.5857 1.0000);fill-opacity:1;"/>
</svg>
