<svg width="35" height="27" viewBox="0 0 35 27" fill="none" xmlns="http://www.w3.org/2000/svg">
<path d="M0.224268 20.5331C0.127651 20.4875 0.0505759 20.4005 0.014137 20.2989C-0.0230752 20.1632 0.0144801 20.0122 0.114519 19.9075L21.1243 0.103049C21.2113 0.0259758 21.3332 -0.0177644 21.4567 0.00674773C21.5663 0.0247457 21.6775 0.110995 21.7342 0.205292L34.9619 26.2457C35.0194 26.3741 35.016 26.5244 34.9232 26.6494C34.837 26.7606 34.6882 26.8254 34.551 26.7944L0.3136 20.5584C0.3136 20.5584 0.258394 20.5324 0.230789 20.5193L0.224268 20.5331ZM21.2882 1.00737L1.19408 19.9445L33.937 25.9139L21.2882 1.00737Z" fill="#6495FF" style="fill:#6495FF;fill:color(display-p3 0.3936 0.5857 1.0000);fill-opacity:1;"/>
</svg>
