<svg width="27" height="46" viewBox="0 0 27 46" fill="none" xmlns="http://www.w3.org/2000/svg">
<path d="M0.227854 45.6362C0.227854 45.6362 0.173417 45.6105 0.146203 45.5977C0.0365823 45.5127 -0.013709 45.3725 0.00327229 45.2307L8.99417 0.306889C9.01757 0.151548 9.15626 0.0339735 9.30365 0.00371002C9.46465 -0.0201309 9.62152 0.0705479 9.69827 0.189965L26.9566 33.1775C26.999 33.264 27.0149 33.3713 26.9835 33.473C26.9386 33.5683 26.88 33.6571 26.7799 33.693L0.530588 45.6294C0.424016 45.6789 0.309495 45.6748 0.214243 45.6298L0.227854 45.6362ZM9.53901 1.47919L0.898523 44.6383L26.1085 33.1765L9.53901 1.47919Z" fill="#6495FF" style="fill:#6495FF;fill:color(display-p3 0.3936 0.5857 1.0000);fill-opacity:1;"/>
</svg>
