<svg width="32" height="18" viewBox="0 0 32 18" fill="none" xmlns="http://www.w3.org/2000/svg">
<path d="M0.228441 17.6694C0.131598 17.6237 0.0405085 17.53 0.0105137 17.4143C-0.0275608 17.2441 0.036965 17.0715 0.212943 16.9854L30.9941 0.0485347C31.1089 -0.0156592 31.2457 -0.0187644 31.3637 0.0538402C31.4882 0.112609 31.5459 0.241327 31.549 0.378125L31.9999 17.5586C32.0022 17.6612 31.9703 17.7645 31.8896 17.8279C31.8228 17.8979 31.7144 17.9483 31.6184 17.9367L0.392907 17.6794C0.392907 17.6794 0.283005 17.6613 0.241501 17.6418L0.228441 17.6694ZM30.804 1.0246L1.85452 16.9482L31.2251 17.1929L30.804 1.0246Z" fill="#6495FF" style="fill:#6495FF;fill:color(display-p3 0.3936 0.5857 1.0000);fill-opacity:1;"/>
</svg>
