<svg width="49" height="16" viewBox="0 0 49 16" fill="none" xmlns="http://www.w3.org/2000/svg">
<path d="M0.228187 0.726543C0.0619155 0.648064 -0.0243257 0.471818 0.00604514 0.299783C0.0429562 0.113892 0.224968 -0.0204589 0.4174 0.002597L48.6563 4.59141C48.7729 4.59562 48.8773 4.6618 48.9342 4.75646C48.9912 4.85113 49.0212 4.96696 48.9828 5.08435L45.9097 15.2566C45.8639 15.3536 45.8247 15.4368 45.7162 15.4872C45.628 15.5303 45.5187 15.5465 45.4152 15.5146L0.249354 0.75348C0.249354 0.75348 0.221643 0.7404 0.207787 0.733861L0.228187 0.726543ZM48.1238 5.28887L3.78662 1.08456L45.2996 14.6468L48.1238 5.28887Z" fill="#6495FF" style="fill:#6495FF;fill:color(display-p3 0.3936 0.5857 1.0000);fill-opacity:1;"/>
</svg>
