<svg width="30" height="27" viewBox="0 0 30 27" fill="none" xmlns="http://www.w3.org/2000/svg">
<path d="M7.57514 26.9826C7.57514 26.9826 7.44472 26.9043 7.40934 26.8374L0.0566797 14.9307C0.000389998 14.8371 -0.0156017 14.7292 0.0159374 14.6269C0.0474764 14.5246 0.10638 14.4352 0.213594 14.3854L28.8294 0.0384693C28.9833 -0.039505 29.1807 0.00342198 29.299 0.14294C29.4172 0.28246 29.4082 0.479037 29.296 0.610234L8.0329 26.8639C7.95383 26.9605 7.83293 27.0039 7.71773 26.9997C7.6702 26.994 7.62267 26.9883 7.58161 26.9689L7.57514 26.9826ZM0.915588 14.8841L7.77609 25.9894L27.5966 1.51548L0.915588 14.8841Z" fill="#6495FF" style="fill:#6495FF;fill:color(display-p3 0.3936 0.5857 1.0000);fill-opacity:1;"/>
</svg>
