<svg width="27" height="34" viewBox="0 0 27 34" fill="none" xmlns="http://www.w3.org/2000/svg">
<path d="M19.9452 33.6994C19.9452 33.6994 19.8281 33.6274 19.7927 33.5603L0.064004 3.99017C-0.00616438 3.88991 -0.0229628 3.7477 0.0353451 3.62417C0.0936531 3.50063 0.200392 3.41673 0.336116 3.41365L26.5688 0.00153229C26.6908 -0.00802109 26.8071 0.0300754 26.8974 0.123083C26.9741 0.209612 27.0176 0.33084 26.9932 0.453606L20.4892 33.4358C20.4519 33.5861 20.3459 33.7039 20.1972 33.7344C20.1229 33.7497 20.0413 33.7448 19.9589 33.7059L19.9452 33.6994ZM1.0301 4.07691L19.9152 32.3761L26.1389 0.805654L1.03659 4.06317L1.0301 4.07691Z" fill="#6495FF" style="fill:#6495FF;fill:color(display-p3 0.3936 0.5857 1.0000);fill-opacity:1;"/>
</svg>
