<svg width="26" height="42" viewBox="0 0 26 42" fill="none" xmlns="http://www.w3.org/2000/svg">
<path d="M25.3459 41.9588C25.3459 41.9588 25.3184 41.9458 25.3047 41.9393L0.188065 27.0587C0.0918347 27.0133 0.0215459 26.9129 0.00548902 26.8044C-0.0105679 26.696 0.00737012 26.5868 0.0802843 26.5035L21.4335 0.138614C21.5259 0.01412 21.695 -0.0237069 21.8455 0.0136844C21.9894 0.064823 22.1009 0.184696 22.1113 0.340863L25.8747 41.5864C25.8915 41.7288 25.8267 41.8663 25.706 41.9438C25.5919 42.0076 25.4697 42.0172 25.3394 41.9725L25.3459 41.9588ZM0.960426 26.6332L25.0639 40.918L21.4539 1.34177L0.960426 26.6332Z" fill="#6495FF" style="fill:#6495FF;fill:color(display-p3 0.3936 0.5857 1.0000);fill-opacity:1;"/>
</svg>
