<svg width="37" height="26" viewBox="0 0 37 26" fill="none" xmlns="http://www.w3.org/2000/svg">
<path d="M0.224218 25.3958C0.224218 25.3958 0.155949 25.3636 0.128641 25.3507C0.0322998 25.2719 -0.0181638 25.1312 0.00608505 25.0091L4.05248 0.306212C4.07029 0.197746 4.14915 0.101407 4.24243 0.0452618C4.33572 -0.010883 4.47072 -0.0139435 4.56629 0.031168L36.7688 13.4441C36.9327 13.5214 37.0032 13.6549 36.9998 13.8036C36.99 13.9659 36.8918 14.1032 36.7375 14.1472L0.508652 25.4299C0.508652 25.4299 0.313351 25.4546 0.231429 25.4159L0.224218 25.3958ZM4.71398 0.885568L0.845626 24.5037L35.5053 13.7159L4.71398 0.885568Z" fill="#6495FF" style="fill:#6495FF;fill:color(display-p3 0.3936 0.5857 1.0000);fill-opacity:1;"/>
</svg>
