<svg width="25" height="40" viewBox="0 0 25 40" fill="none" xmlns="http://www.w3.org/2000/svg">
<path d="M1.52314 39.3992C1.40069 39.3414 1.31034 39.2156 1.31371 39.0674L6.6521e-05 0.399192C-0.00221986 0.298293 0.0291323 0.196639 0.114902 0.120664C0.180644 0.0518736 0.28719 0.00234013 0.38809 5.34171e-05L24.6279 0.211294C24.7625 0.208246 24.8921 0.286075 24.9552 0.399056C25.0183 0.512037 25.015 0.660173 24.9436 0.776203L2.0174 39.2332C1.93316 39.3764 1.76652 39.4475 1.60401 39.4041C1.59041 39.3977 1.5632 39.3848 1.5496 39.3784L1.52314 39.3992ZM0.755558 0.772419L2.01109 37.7662L23.952 0.97365L0.755558 0.772419Z" fill="#6495FF" style="fill:#6495FF;fill:color(display-p3 0.3936 0.5857 1.0000);fill-opacity:1;"/>
</svg>
