<svg width="30" height="36" viewBox="0 0 30 36" fill="none" xmlns="http://www.w3.org/2000/svg">
<path d="M0.216001 31.3795C0.134099 31.3409 0.0787312 31.2814 0.0362524 31.1946C-0.0134359 31.0876 -0.0164935 30.9527 0.0551429 30.8363L18.2125 0.18192C18.277 0.0454173 18.4241 -0.0186838 18.5799 0.00479365C18.7221 0.0218284 18.8529 0.13365 18.8897 0.267859L29.9805 35.2966C30.0237 35.4171 29.993 35.5529 29.9077 35.6628C29.8289 35.7591 29.6883 35.8096 29.5662 35.7853L0.310787 31.3909C0.310787 31.3909 0.236092 31.3723 0.208791 31.3595L0.216001 31.3795ZM18.4338 1.30452L0.998429 30.7474L29.1019 34.9654L18.4474 1.31096L18.4338 1.30452Z" fill="#6495FF" style="fill:#6495FF;fill:color(display-p3 0.3936 0.5857 1.0000);fill-opacity:1;"/>
</svg>
