<svg width="29" height="40" viewBox="0 0 29 40" fill="none" xmlns="http://www.w3.org/2000/svg">
<path d="M0.222795 39.9782C0.222795 39.9782 0.153789 39.9456 0.132696 39.9187C0.014194 39.8122 -0.0303302 39.6561 0.021023 39.5116L12.2973 0.269463C12.3487 0.124899 12.4626 0.0267156 12.6259 0.00252873C12.7689 -0.0143691 12.9208 0.0573072 12.9986 0.178458L28.6975 26.3928C28.7542 26.4871 28.7704 26.596 28.7386 26.6991C28.7068 26.8023 28.6473 26.8924 28.5254 26.9361L0.550253 39.9639C0.442134 40.0142 0.325953 40.01 0.229319 39.9644L0.222795 39.9782ZM12.7787 1.32382L1.01132 38.9155L27.8175 26.4332L12.7787 1.32382Z" fill="#6495FF" style="fill:#6495FF;fill:color(display-p3 0.3936 0.5857 1.0000);fill-opacity:1;"/>
</svg>
