<svg width="32" height="26" viewBox="0 0 32 26" fill="none" xmlns="http://www.w3.org/2000/svg">
<path d="M16.5281 25.9803C16.5281 25.9803 16.4105 25.908 16.3749 25.8406L0.0590859 0.5935C-0.0186578 0.47253 -0.0152418 0.322441 0.043313 0.198382C0.101867 0.0743246 0.236625 0.00309032 0.372924 1.64791e-06L31.4844 0.256431C31.6207 0.253343 31.752 0.332184 31.8159 0.446647C31.8799 0.561111 31.8765 0.711197 31.8041 0.82875L16.9948 25.8129C16.9362 25.937 16.8079 25.9944 16.6716 25.9975C16.6173 26.0056 16.5556 25.9933 16.5005 25.9673L16.5281 25.9803ZM1.07945 0.788566L16.6745 24.9201L30.8336 1.02802L1.07945 0.788566Z" fill="#6495FF" style="fill:#6495FF;fill:color(display-p3 0.3936 0.5857 1.0000);fill-opacity:1;"/>
</svg>
