<svg width="49" height="36" viewBox="0 0 49 36" fill="none" xmlns="http://www.w3.org/2000/svg">
<path d="M18.0079 35.4266C18.0079 35.4266 17.9126 35.3817 17.871 35.3287L0.0861405 14.0855C0.0029473 13.9797 -0.0201359 13.8523 0.0176478 13.737C0.0554315 13.6217 0.15409 13.5184 0.26788 13.4889L48.5201 0.0137725C48.6739 -0.0301118 48.8437 0.0333876 48.9413 0.1793C49.0252 0.318789 49.0226 0.500633 48.9111 0.631086L18.4237 35.3566C18.3515 35.439 18.2449 35.4886 18.1304 35.4845C18.0831 35.4788 18.0222 35.4667 17.9814 35.4474L18.0079 35.4266ZM1.04111 14.0369L18.1619 34.5007L47.5135 1.05325L1.04111 14.0369Z" fill="#6495FF" style="fill:#6495FF;fill:color(display-p3 0.3936 0.5857 1.0000);fill-opacity:1;"/>
</svg>
