<svg width="23" height="21" viewBox="0 0 23 21" fill="none" xmlns="http://www.w3.org/2000/svg">
<path d="M0.219157 20.9791C0.219157 20.9791 0.178083 20.9597 0.150704 20.9468C0.0541085 20.8677 -0.00942156 20.754 0.00120071 20.6251L0.639239 0.370199C0.649861 0.241297 0.721703 0.12455 0.841843 0.0473399C0.955521 -0.0161808 1.0909 -0.0192389 1.22133 0.0590653L22.5059 12.6664C22.6428 12.731 22.7071 12.8785 22.69 13.0211C22.6729 13.1637 22.5672 13.2812 22.4399 13.3383L0.530936 20.9923C0.530936 20.9923 0.335122 21.0171 0.252984 20.9783L0.219157 20.9791ZM1.36525 1.03092L0.768035 20.0999L21.3937 12.8947L1.36525 1.03092Z" fill="#6495FF" style="fill:#6495FF;fill:color(display-p3 0.3936 0.5857 1.0000);fill-opacity:1;"/>
</svg>
