<svg width="21" height="41" viewBox="0 0 21 41" fill="none" xmlns="http://www.w3.org/2000/svg">
<path d="M17.5322 40.9714C17.4639 40.9392 17.3949 40.8732 17.3596 40.8065L0.0433778 7.70841C-0.0127634 7.61513 -0.00860632 7.50022 0.0228493 7.3982C0.0679578 7.30263 0.140374 7.21995 0.240859 7.1839L20.2985 0.0232244C20.4191 -0.0200288 20.5613 -0.0029986 20.6576 0.0758599C20.7539 0.154719 20.8173 0.268105 20.8067 0.396661L18.0517 40.649C18.0418 40.8113 17.9099 40.9493 17.7556 40.9933C17.6816 41.0085 17.5868 40.9972 17.5185 40.965L17.5322 40.9714ZM0.915215 7.73592L17.3991 39.2725L20.0218 0.9277L0.908764 7.74958L0.915215 7.73592Z" fill="#6495FF" style="fill:#6495FF;fill:color(display-p3 0.3936 0.5857 1.0000);fill-opacity:1;"/>
</svg>
