<svg width="47" height="41" viewBox="0 0 47 41" fill="none" xmlns="http://www.w3.org/2000/svg">
<path d="M0.210956 40.9364C0.210956 40.9364 0.14276 40.9042 0.121914 40.8777C0.039296 40.8053 -0.00393366 40.6849 0.000212486 40.57L2.75315 0.348529C2.77017 0.206429 2.84176 0.0900808 2.96869 0.0332183C3.09562 -0.0236443 3.23773 -0.00661827 3.34763 0.0786193L46.1468 32.0068C46.2703 32.0985 46.3143 32.2527 46.2973 32.3948C46.2602 32.5441 46.1412 32.6547 45.9934 32.6851L0.448558 40.9985C0.448558 40.9985 0.293579 41.0088 0.225366 40.9766L0.210956 40.9364ZM3.438 1.08882L0.766696 40.1478L44.9744 32.0873L3.43156 1.10245L3.438 1.08882Z" fill="#6495FF" style="fill:#6495FF;fill:color(display-p3 0.3936 0.5857 1.0000);fill-opacity:1;"/>
</svg>
