<svg width="29" height="32" viewBox="0 0 29 32" fill="none" xmlns="http://www.w3.org/2000/svg">
<path d="M0.218477 31.6733C0.218477 31.6733 0.122065 31.6278 0.0937468 31.5808C-0.0179778 31.4607 -0.0291056 31.2701 0.0561745 31.1251L18.8054 0.17904C18.8639 0.0550845 19.0124 -0.00959489 19.142 0.00109208C19.2717 0.011779 19.403 0.0905572 19.4669 0.204926L28.9524 18.037C29.009 18.1311 29.0113 18.2333 28.9796 18.3362C28.9341 18.4326 28.8748 18.5225 28.7734 18.5589L0.538665 31.6729C0.430797 31.723 0.314887 31.7188 0.218477 31.6733ZM19.1067 1.14644L1.35555 30.4417L28.1004 18.0223L19.1132 1.13267L19.1067 1.14644Z" fill="#6495FF" style="fill:#6495FF;fill:color(display-p3 0.3936 0.5857 1.0000);fill-opacity:1;"/>
</svg>
