<svg width="58" height="35" viewBox="0 0 58 35" fill="none" xmlns="http://www.w3.org/2000/svg">
<path d="M0.234606 34.2828C0.234606 34.2828 0.180035 34.257 0.152748 34.2442C0.0428375 34.1589 -0.0140245 34.032 0.00300105 33.8898L4.97194 0.316919C4.98973 0.208535 5.04202 0.133114 5.12159 0.0705719C5.20116 0.00803028 5.30879 -0.00789322 5.40352 0.00345787L57.6853 9.19836C57.8547 9.22826 57.9726 9.36733 57.9965 9.52876C58.0204 9.69019 57.923 9.8611 57.7623 9.91873L0.511623 34.2967C0.411207 34.3328 0.310037 34.3351 0.214534 34.29L0.234606 34.2828ZM5.67159 0.813987L0.854018 33.3239L56.3132 9.70187L5.67803 0.800352L5.67159 0.813987Z" fill="#6495FF" style="fill:#6495FF;fill:color(display-p3 0.3936 0.5857 1.0000);fill-opacity:1;"/>
</svg>
