<svg width="38" height="32" viewBox="0 0 38 32" fill="none" xmlns="http://www.w3.org/2000/svg">
<path d="M1.98786 31.7725C1.98786 31.7725 1.96042 31.7595 1.94669 31.7531C1.83692 31.7012 1.77972 31.5736 1.77017 31.4516L0.00088526 0.398145C-0.0086658 0.276186 0.0560986 0.138971 0.156322 0.0688254C0.256545 -0.00132066 0.398696 -0.0181152 0.514947 0.0199758L37.7614 14.8483C37.8979 14.8792 37.9897 15.04 38.0001 15.1959C37.9967 15.3453 37.9117 15.4897 37.784 15.5469L2.30686 31.772C2.19939 31.822 2.08391 31.8178 1.98786 31.7725ZM0.780385 0.95063L2.48961 30.8516L36.657 15.2331L0.780385 0.95063Z" fill="#6495FF" style="fill:#6495FF;fill:color(display-p3 0.3936 0.5857 1.0000);fill-opacity:1;"/>
</svg>
