<svg width="26" height="26" viewBox="0 0 26 26" fill="none" xmlns="http://www.w3.org/2000/svg">
<path d="M6.03856 25.9623C5.92581 25.9091 5.84711 25.8203 5.8232 25.6883L0.00893431 0.470373C-0.0224126 0.317702 0.0300185 0.170108 0.139616 0.0839625C0.249214 -0.00218332 0.415981 -0.0268761 0.542831 0.0329964L25.7179 12.0189C25.8448 12.0787 25.9243 12.2024 25.9415 12.3485C25.9588 12.4945 25.8848 12.6147 25.7752 12.7008L6.41439 25.9329C6.31144 26.0049 6.1654 26.0222 6.05265 25.969C6.05265 25.969 6.05266 25.969 6.03856 25.9623ZM0.943103 1.08364L6.44121 24.9632L24.7792 12.4375L0.943103 1.08364Z" fill="#6495FF" style="fill:#6495FF;fill:color(display-p3 0.3936 0.5857 1.0000);fill-opacity:1;"/>
</svg>
