<svg width="45" height="24" viewBox="0 0 45 24" fill="none" xmlns="http://www.w3.org/2000/svg">
<path d="M35.3479 23.9503C35.3479 23.9503 35.3205 23.9374 35.3067 23.9309L0.184952 3.12953C0.0406292 3.04465 -0.0309851 2.87675 0.0127707 2.71301C0.0565273 2.54928 0.196244 2.43084 0.36568 2.427L44.59 0.000907647C44.7119 -0.00863423 44.849 0.0560719 44.919 0.156197C44.9891 0.256325 45.0059 0.39834 44.9678 0.514477L35.8451 23.7492C35.7998 23.8451 35.7271 23.9281 35.6197 23.978C35.5188 24.0142 35.4236 24.0028 35.3414 23.964L35.3479 23.9503ZM1.64934 3.11669L35.3142 23.0628L44.0518 0.786128L1.64934 3.11669Z" fill="#6495FF" style="fill:#6495FF;fill:color(display-p3 0.3936 0.5857 1.0000);fill-opacity:1;"/>
</svg>
