<svg width="46" height="18" viewBox="0 0 46 18" fill="none" xmlns="http://www.w3.org/2000/svg">
<path d="M0.68047 17.963C0.68047 17.963 0.611121 17.9303 0.576056 17.8968C0.505926 17.8297 0.455436 17.7211 0.453104 17.6182L0.00104496 0.393382C-0.00860957 0.270101 0.0503114 0.145266 0.151621 0.0743595C0.252931 0.0034531 0.382763 -0.0200718 0.500274 0.0184318L45.7136 14.795C45.8866 14.8597 45.9933 15.0288 45.9768 15.2076C45.9603 15.3864 45.8058 15.534 45.614 15.5452L0.866557 18C0.866557 18 0.735952 17.9892 0.68047 17.963ZM0.788229 0.917572L1.21931 17.2167L43.5338 14.8856L0.788229 0.917572Z" fill="#6495FF" style="fill:#6495FF;fill:color(display-p3 0.3936 0.5857 1.0000);fill-opacity:1;"/>
</svg>
