<svg width="40" height="30" viewBox="0 0 40 30" fill="none" xmlns="http://www.w3.org/2000/svg">
<path d="M0.215374 22.49C0.132396 22.4508 0.0624643 22.384 0.0259533 22.2822C-0.0178594 22.1601 -0.00712346 22.0299 0.0654546 21.9119L15.7924 0.164058C15.8585 0.0599481 15.9668 0.00960534 16.0897 -2.09579e-05C16.2061 0.00418267 16.3233 0.042574 16.394 0.143585L39.9167 28.9854C40.0085 29.1133 40.0327 29.2769 39.9471 29.4225C39.8818 29.5608 39.7124 29.6331 39.5545 29.6093L0.318706 22.5219C0.318706 22.5219 0.26338 22.4958 0.235721 22.4827L0.215374 22.49ZM16.113 1.02559L1.04305 21.8829L38.6717 28.6853L16.1203 1.04595L16.113 1.02559Z" fill="#6495FF" style="fill:#6495FF;fill:color(display-p3 0.3936 0.5857 1.0000);fill-opacity:1;"/>
</svg>
