<svg width="33" height="55" viewBox="0 0 33 55" fill="none" xmlns="http://www.w3.org/2000/svg">
<path d="M27.797 54.9597C27.797 54.9597 27.7289 54.9276 27.708 54.9011L0.120872 30.3297C0.0383232 30.2574 0.00233499 30.1571 4.48161e-05 30.056C-0.00224699 29.9549 0.0492193 29.8459 0.128713 29.7834L31.7926 0.0936972C31.9115 -0.0168752 32.0936 -0.0142509 32.2091 0.0235863C32.3454 0.087922 32.4295 0.2276 32.4197 0.389641L28.3429 54.6507C28.3259 54.7927 28.2343 54.9161 28.1075 54.9729C28.0071 55.0089 27.9061 55.0112 27.8106 54.9662L27.797 54.9597ZM0.923427 30.0418L27.6298 53.8308L31.5771 1.292L0.923427 30.0418Z" fill="#6495FF" style="fill:#6495FF;fill:color(display-p3 0.3936 0.5857 1.0000);fill-opacity:1;"/>
</svg>
