<svg width="41" height="50" viewBox="0 0 41 50" fill="none" xmlns="http://www.w3.org/2000/svg">
<path d="M20.4545 50L40.9537 38.7255V26.5152L38.7042 25.0891V37.1604L20.4463 47.2817L2.22816 37.1207V26.5152V25.0891L0 26.5152V32.598V38.6809L20.4545 50Z" fill="#3A8CFF" style="fill:#3A8CFF;fill:color(display-p3 0.2290 0.5482 1.0000);fill-opacity:1;"/>
<path d="M40.9537 11.0517L20.4545 0L0 11.0517V23.6631L2.22816 25.0891V23.6631V12.5123L20.4463 2.66892L38.7042 12.5123V25.0891L40.9537 23.6631V11.0517Z" fill="white" style="fill:white;fill-opacity:1;"/>
<path d="M2.22816 37.1207L20.4463 47.2817L20.4545 44.6524L4.45633 35.918V26.5152L2.22816 25.0891V26.5152V37.1207Z" fill="white" style="fill:white;fill-opacity:1;"/>
<path d="M20.4463 47.2817L38.7042 37.1604V25.0891L36.4528 26.5152V36.0517L20.4545 44.6524L20.4463 47.2817Z" fill="#060606" style="fill:#060606;fill:color(display-p3 0.0235 0.0235 0.0235);fill-opacity:1;"/>
<path d="M38.7042 25.0891V12.5123L36.4528 13.7701V23.6631L38.7042 25.0891Z" fill="#060606" style="fill:#060606;fill:color(display-p3 0.0235 0.0235 0.0235);fill-opacity:1;"/>
<path d="M38.7042 12.5123L20.4463 2.66892L20.4545 5.39216L36.4528 13.7701L38.7042 12.5123Z" fill="#060606" style="fill:#060606;fill:color(display-p3 0.0235 0.0235 0.0235);fill-opacity:1;"/>
<path fill-rule="evenodd" clip-rule="evenodd" d="M20.4545 44.6524L36.4528 36.0517V26.5152V23.6631V13.7701L20.4545 5.39216L4.45633 13.7701V23.6631V26.5152V35.918L20.4545 44.6524Z" fill="white" style="fill:white;fill-opacity:1;"/>
<path d="M38.7042 25.0891L36.4528 23.6631V26.5152L38.7042 25.0891Z" fill="#060606" style="fill:#060606;fill:color(display-p3 0.0235 0.0235 0.0235);fill-opacity:1;"/>
<path d="M4.45633 23.6631L2.22816 25.0891L4.45633 26.5152V23.6631Z" fill="white" style="fill:white;fill-opacity:1;"/>
</svg>
