<svg width="32" height="34" viewBox="0 0 32 34" fill="none" xmlns="http://www.w3.org/2000/svg">
<path d="M24.1173 33.7877C24.1173 33.7877 24.0137 33.7219 23.9716 33.6684L0.0688976 0.603443C-0.0225152 0.476127 -0.0198757 0.292204 0.0588701 0.161032C0.157881 0.022592 0.319999 -0.0355622 0.477932 0.0221478L31.727 9.28367C31.8096 9.32265 31.906 9.36814 31.9561 9.47596C31.999 9.56352 32.0151 9.67211 31.9833 9.77498L24.6304 33.5922C24.5857 33.7226 24.4657 33.8342 24.323 33.8511C24.2485 33.8664 24.1731 33.8477 24.1043 33.8152L24.1173 33.7877ZM1.33886 1.05135L24.1381 32.6023L31.1413 9.88258L1.33886 1.05135Z" fill="#6495FF" style="fill:#6495FF;fill:color(display-p3 0.3936 0.5857 1.0000);fill-opacity:1;"/>
</svg>
