<svg width="29" height="28" viewBox="0 0 29 28" fill="none" xmlns="http://www.w3.org/2000/svg">
<path d="M0.22351 27.1936C0.22351 27.1936 0.18265 27.1743 0.169031 27.1679C0.039264 27.09 -0.0182622 26.9296 0.0051624 26.7741L5.73802 0.303003C5.75578 0.194811 5.82802 0.112336 5.92106 0.0563326C6.01411 0.000329174 6.12154 -0.0155809 6.2233 0.0157975L28.7408 6.68036C28.8898 6.71741 28.9803 6.84336 28.9969 6.98446C29.0136 7.12556 28.9629 7.26816 28.837 7.35859L0.586652 27.1652C0.480749 27.2484 0.32604 27.2587 0.217084 27.2072L0.22351 27.1936ZM6.39709 0.847227L0.957527 25.9913L27.7751 7.17382L6.39709 0.847227Z" fill="#6495FF" style="fill:#6495FF;fill:color(display-p3 0.3936 0.5857 1.0000);fill-opacity:1;"/>
</svg>
