<svg width="41" height="38" viewBox="0 0 41 38" fill="none" xmlns="http://www.w3.org/2000/svg">
<path d="M40.345 37.9694C40.345 37.9694 40.3174 37.9565 40.3037 37.95L0.187274 14.1882C0.0634803 14.1298 -0.0148747 13.9751 0.002291 13.8318C0.0194558 13.6885 0.111887 13.564 0.239862 13.5067L34.185 0.0278737C34.2927 -0.0221943 34.4158 0.00223477 34.512 0.0476799C34.6221 0.0996175 34.6722 0.207347 34.702 0.322336L40.8733 37.5629C40.9039 37.7118 40.8389 37.8494 40.698 37.9342C40.591 38.0183 40.4412 38.0149 40.3312 37.963L40.345 37.9694ZM1.25618 13.9191L40.0005 36.8818L34.0415 0.902023L1.25618 13.9191Z" fill="#6495FF" style="fill:#6495FF;fill:color(display-p3 0.3936 0.5857 1.0000);fill-opacity:1;"/>
</svg>
