<svg width="37" height="32" viewBox="0 0 37 32" fill="none" xmlns="http://www.w3.org/2000/svg">
<path d="M0.226666 24.6351C0.143722 24.596 0.0600032 24.5227 0.0235074 24.4209C-0.020288 24.2988 -0.00303393 24.1548 0.0768129 24.0573L18.1552 0.152043C18.235 0.0545006 18.3498 -0.00964224 18.48 0.0010844C18.6102 0.011811 18.7281 0.084359 18.7784 0.192628L36.9504 31.4206C37.0219 31.5557 37.0184 31.7063 36.9255 31.8315C36.8326 31.9566 36.6902 32.0077 36.5324 31.984L0.288489 24.6474C0.288489 24.6474 0.233197 24.6213 0.205549 24.6083L0.226666 24.6351ZM18.4153 1.06929L1.054 24.0283L35.8687 31.0622L18.4015 1.06276L18.4153 1.06929Z" fill="#6495FF" style="fill:#6495FF;fill:color(display-p3 0.3936 0.5857 1.0000);fill-opacity:1;"/>
</svg>
