<svg width="57" height="56" viewBox="0 0 57 56" fill="none" xmlns="http://www.w3.org/2000/svg">
<path d="M0.224771 55.2863C0.224771 55.2863 0.108298 55.2146 0.0665583 55.1615C-0.0241389 55.0352 -0.0215249 54.8527 0.0702612 54.729L38.2036 0.15775C38.289 0.0477128 38.4161 -0.00922444 38.5447 0.00137398C38.6733 0.0119728 38.797 0.103765 38.8539 0.230847L56.9642 40.9133C57.0139 41.0203 57.0098 41.1352 56.9647 41.2308C56.9195 41.3265 56.8334 41.4027 56.7192 41.4324L0.475558 55.3211C0.475558 55.3211 0.30028 55.3386 0.218326 55.2999L0.224771 55.2863ZM38.4485 1.12512L1.26374 54.3236L56.1034 40.7909L38.4485 1.12512Z" fill="#6495FF" style="fill:#6495FF;fill:color(display-p3 0.3936 0.5857 1.0000);fill-opacity:1;"/>
</svg>
