<svg width="111" height="36" viewBox="0 0 111 36" fill="none" xmlns="http://www.w3.org/2000/svg">
<g clip-path="url(#clip0_1_1020)">
<path fill-rule="evenodd" clip-rule="evenodd" d="M19.2764 36H18C8.0589 36 0 27.9411 0 18C0 8.0589 8.0589 0 18 0C27.9411 0 36 8.0589 36 18C36.0002 18.8775 35.9368 19.7539 35.8102 20.6222H33.2906C33.4377 19.7559 33.5115 18.8787 33.5111 18C33.5111 9.43342 26.5666 2.48888 18 2.48888C9.43342 2.48888 2.48888 9.4335 2.48888 18C2.48888 26.5665 9.4335 33.5111 18 33.5111H27.2254C24.8696 34.9153 22.1668 35.798 19.2764 36ZM30.6737 30.8444H18C10.9062 30.8444 5.1555 25.0938 5.1555 18C5.1555 10.9062 10.9062 5.1555 18 5.1555C25.0938 5.1555 30.8444 10.9062 30.8444 18C30.8444 18.8979 30.7521 19.775 30.5763 20.6222H28.021C28.2392 19.7856 28.3556 18.9071 28.3556 18C28.3556 12.2808 23.7192 7.64445 18 7.64445C12.2808 7.64445 7.64445 12.2808 7.64445 18C7.64445 23.7192 12.2808 28.3556 18 28.3556H32.779C32.1534 29.2467 31.4488 30.0797 30.6737 30.8444ZM18 25.6889H34.329C34.7087 24.8841 35.0279 24.0522 35.2839 23.2H18C15.1281 23.2 12.8 20.8719 12.8 18C12.8 15.1281 15.1281 12.8 18 12.8C20.8719 12.8 23.2 15.1281 23.2 18C23.2 18.9578 22.9421 19.8529 22.4917 20.6222H25.2298C25.5269 19.8034 25.6889 18.9201 25.6889 18C25.6889 13.7536 22.2464 10.3111 18 10.3111C13.7536 10.3111 10.3111 13.7536 10.3111 18C10.3111 22.2464 13.7536 25.6889 18 25.6889ZM52.2255 28.3507C46.3033 28.3507 42.7057 24.1166 42.7057 18.0007C42.7057 11.6911 46.497 7.65068 52.2255 7.65068C58.1201 7.65068 61.7729 11.8295 61.7729 17.973C61.7729 24.338 57.954 28.3507 52.2255 28.3507ZM52.2255 10.3904C48.3512 10.3904 45.9436 13.4069 45.9436 17.973C45.9436 22.6499 48.4065 25.5557 52.2255 25.5557C56.1552 25.5557 58.5351 22.5392 58.5351 18.0007C58.5351 13.3515 56.0445 10.3904 52.2255 10.3904ZM66.9601 28.0739H64.0543V13.5176H66.6003L66.9878 16.2296H67.1815C68.0947 14.3201 69.8658 13.2408 72.052 13.2408C75.3173 13.2408 77.0888 15.593 77.0888 19.1906V28.0739H74.1553V19.4951C74.1553 16.9491 72.9929 15.7591 70.9451 15.7591C68.5375 15.7591 66.9601 17.6686 66.9601 20.436V28.0739ZM93.3067 28.0739V7.70603H90.3735V16.3403H90.207C89.46 14.5415 87.7448 13.2408 85.254 13.2408C81.573 13.2408 79.0823 16.1742 79.0823 20.9064C79.0823 25.4726 81.4898 28.3507 85.2262 28.3507C87.495 28.3507 89.4323 27.2714 90.207 25.5003H90.3735L90.7058 28.0739H93.3067ZM90.3735 21.6536C90.3735 24.0612 88.6575 25.86 86.112 25.86C83.676 25.86 82.071 24.1719 82.071 20.9064C82.071 17.7793 83.5103 15.7591 86.1668 15.7591C88.5743 15.7591 90.3735 17.3918 90.3735 20.0485V21.6536ZM102.599 28.3507C98.3378 28.3507 95.5148 25.2789 95.5148 20.8234C95.5148 16.3403 98.3378 13.2408 102.599 13.2408C106.862 13.2408 109.656 16.3403 109.656 20.8234C109.656 25.2789 106.862 28.3507 102.599 28.3507ZM102.599 15.7591C100.081 15.7591 98.5035 17.6963 98.5035 20.7957C98.5035 23.8399 99.9983 25.8047 102.599 25.8047C105.09 25.8047 106.667 23.9229 106.667 20.768C106.667 17.7793 105.201 15.7591 102.599 15.7591Z" fill="#4D5270" style="fill:#4D5270;fill:color(display-p3 0.3020 0.3216 0.4392);fill-opacity:1;"/>
</g>
<defs>
<clipPath id="clip0_1_1020">
<rect width="110.25" height="36" fill="white" style="fill:white;fill-opacity:1;"/>
</clipPath>
</defs>
</svg>
