<svg width="139" height="29" viewBox="0 0 139 29" fill="none" xmlns="http://www.w3.org/2000/svg">
<g clip-path="url(#clip0_1_1024)">
<path d="M40.0683 21.2006V14.0693L37.6106 19.5286H35.4551L32.9974 14.0693V21.2006H28.9684V7.09913H33.368L36.5308 14.029L39.7137 7.09913H44.0932V21.2006H40.0683ZM64.6451 14.5568V21.2006H60.6161V7.09913H63.7547L69.645 14.5568V7.09913H73.674V21.2006H70.4508L64.6451 14.5568ZM87.7755 21.2006V7.09913H94.5119C95.1981 7.09268 95.8766 7.24417 96.4942 7.54232C97.0843 7.82601 97.6138 8.22143 98.0534 8.7067C98.4916 9.1864 98.8384 9.74212 99.0768 10.3465C99.3214 10.9353 99.4486 11.5663 99.4515 12.2039C99.4594 13.0427 99.2674 13.8714 98.8914 14.6212C98.5345 15.3459 98.0028 15.9704 97.3443 16.4383L100.443 21.2207H95.8899L93.3113 17.3247H91.8045V21.2167L87.7755 21.2006ZM91.8045 13.7792H94.3467C94.4857 13.771 94.6209 13.7302 94.7412 13.6603C94.8616 13.5903 94.9638 13.493 95.0397 13.3763C95.2718 13.0356 95.3838 12.6273 95.358 12.2159C95.3867 11.7924 95.2543 11.3736 94.9874 11.0435C94.8983 10.9279 94.7859 10.8323 94.6575 10.7629C94.5291 10.6935 94.3875 10.6518 94.242 10.6406H91.8045V13.7792ZM102.457 21.2006V7.09913H106.486V21.2006H102.457ZM85.761 10.7252V7.09913H75.6885V21.2006H85.761V17.5745H79.7175V15.7614H85.761V12.5383H79.7175V10.7252H85.761ZM115.112 17.6188C115.537 17.6337 115.957 17.5245 116.321 17.3046C116.65 17.1041 116.926 16.8278 117.127 16.4988C117.344 16.1368 117.498 15.7402 117.582 15.3263C117.68 14.871 117.729 14.4061 117.727 13.9403V7.09107H121.756V13.9403C121.76 14.9109 121.624 15.877 121.353 16.809C121.118 17.6553 120.706 18.4421 120.144 19.1176C119.577 19.7776 118.867 20.3009 118.069 20.6486C117.138 21.0417 116.135 21.2326 115.124 21.2086C114.091 21.2367 113.064 21.0344 112.119 20.6164C111.321 20.2536 110.618 19.7118 110.064 19.033C109.516 18.3529 109.114 17.567 108.883 16.7244C108.633 15.8177 108.508 14.8809 108.513 13.9403V7.09107H112.542V13.9403C112.54 14.4101 112.589 14.8791 112.687 15.3384C112.77 15.755 112.924 16.1542 113.142 16.5189C113.343 16.8478 113.619 17.1241 113.948 17.3247C114.301 17.5284 114.704 17.6302 115.112 17.6188ZM134.854 21.2006V14.0693L132.396 19.5286H130.245L127.787 14.0693V21.2006H123.758V7.09913H128.158L131.321 14.029L134.504 7.09913H138.883V21.2006H134.854ZM52.3768 11.1281C52.9744 11.1283 53.5586 11.3056 54.0554 11.6376C54.5523 11.9696 54.9397 12.4415 55.1685 12.9935C55.3395 13.4063 55.4168 13.8519 55.3949 14.2982C55.373 14.7445 55.2524 15.1803 55.0418 15.5744C54.8311 15.9685 54.5357 16.3109 54.1769 16.5771C53.818 16.8432 53.4045 17.0265 52.9663 17.1137C52.5281 17.2008 52.076 17.1897 51.6425 17.0812C51.2091 16.9726 50.8052 16.7692 50.4598 16.4858C50.1144 16.2023 49.8362 15.8458 49.6451 15.4419C49.4541 15.0379 49.355 14.5967 49.3551 14.1499C49.3563 13.3488 49.6751 12.581 50.2415 12.0146C50.8079 11.4482 51.5758 11.1294 52.3768 11.1281ZM52.3768 7.09913C50.9823 7.09896 49.619 7.51241 48.4595 8.28717C47.3 9.06193 46.3963 10.1632 45.8627 11.4516C45.1949 13.0685 45.1518 14.8758 45.7419 16.5226C46.3321 18.1694 47.5132 19.5381 49.056 20.3627C50.5988 21.1873 52.393 21.4091 54.0901 20.9849C55.7872 20.5607 57.2661 19.5208 58.2394 18.0672C59.0141 16.9077 59.4276 15.5444 59.4275 14.1499C59.4279 13.2238 59.2458 12.3068 58.8917 11.4511C58.5375 10.5955 58.0182 9.81805 57.3635 9.16318C56.7087 8.50838 55.9312 7.98906 55.0756 7.6349C54.2199 7.28073 53.3029 7.09868 52.3768 7.09913ZM13.1707 22.933L7.67521 17.4335C7.23977 17.0047 6.89404 16.4935 6.65816 15.9298C6.42228 15.366 6.30098 14.761 6.30132 14.1499C6.29718 12.9474 6.76268 11.7909 7.59866 10.9267L7.67118 10.8541L9.20622 9.3191L7.0064 7.1233C6.59479 6.7142 6.26935 6.22675 6.04929 5.68976C5.82924 5.15276 5.71903 4.57711 5.72518 3.99681L3.25541 6.46658C2.24323 7.46819 1.43943 8.66033 0.890365 9.9742C0.341305 11.2881 0.0578634 12.6977 0.0563965 14.1217C0.0587705 15.5455 0.342625 16.9548 0.891633 18.2686C1.44064 19.5823 2.24397 20.7746 3.25541 21.7767L8.76303 27.2843C9.34786 27.8705 10.1414 28.2007 10.9694 28.2023C11.7974 28.2039 12.5923 27.8768 13.1794 27.2929C13.7665 26.7091 14.0979 25.916 14.1008 25.088C14.1037 24.26 13.7779 23.4647 13.1949 22.8766L13.1707 22.933ZM15.6687 14.1458C15.6718 15.3473 15.2081 16.5029 14.3754 17.369L12.7638 18.9806L14.9596 21.1764C15.3728 21.5854 15.6995 22.0733 15.9203 22.6111C16.1411 23.1489 16.2515 23.7256 16.2449 24.3069L18.7146 21.8372C19.7217 20.8386 20.5222 19.6515 21.0704 18.3435C21.6186 17.0356 21.9038 15.6325 21.9096 14.2143V14.1096C21.9004 12.6912 21.6109 11.2886 21.0578 9.98244C20.5046 8.67631 19.6987 7.49241 18.6864 6.49881L13.1748 0.98716C12.5769 0.507541 11.8233 0.265208 11.0579 0.306536C10.2926 0.347863 9.56939 0.669948 9.02669 1.21116C8.48398 1.75236 8.1599 2.47468 8.11646 3.23989C8.07302 4.0051 8.31327 4.75946 8.79124 5.35861L10.987 7.55441L12.3649 8.92829L14.2908 10.8541C14.7254 11.2795 15.0711 11.7872 15.3077 12.3474C15.5442 12.9077 15.667 13.5095 15.6687 14.1176V14.1458Z" fill="#4D5270" style="fill:#4D5270;fill:color(display-p3 0.3020 0.3216 0.4392);fill-opacity:1;"/>
</g>
<defs>
<clipPath id="clip0_1_1024">
<rect width="139" height="28.2029" fill="white" style="fill:white;fill-opacity:1;"/>
</clipPath>
</defs>
</svg>
