<svg width="103" height="36" viewBox="0 0 103 36" fill="none" xmlns="http://www.w3.org/2000/svg">
<g clip-path="url(#clip0_1_1042)">
<path d="M15.7965 33.8221C13.6644 33.8221 11.5958 33.4041 9.64755 32.5805C7.76619 31.7847 6.07765 30.6456 4.6265 29.1956C3.17647 27.7455 2.0374 26.0559 1.24161 24.1745C0.417957 22.2263 0 20.1577 0 18.0255C0 15.8934 0.417957 13.8248 1.24161 11.8766C2.0374 9.9952 3.17647 8.30665 4.6265 6.8555C6.07765 5.40547 7.76619 4.2664 9.64755 3.47061C11.5958 2.64696 13.6644 2.229 15.7965 2.229C17.9287 2.229 19.9973 2.64696 21.9455 3.47061C23.8269 4.2664 25.5154 5.40547 26.9666 6.8555C28.4166 8.30554 29.5557 9.9952 30.3515 11.8766C31.1751 13.8248 31.5931 15.8934 31.5931 18.0255C31.5931 20.1577 31.1751 22.2263 30.3515 24.1745C29.5557 26.0559 28.4166 27.7444 26.9666 29.1956C25.5165 30.6456 23.8269 31.7847 21.9455 32.5805C19.9973 33.4052 17.9287 33.8221 15.7965 33.8221Z" fill="white" style="fill:white;fill-opacity:1;"/>
<path d="M15.7965 32.9852C24.0585 32.9852 30.756 26.2876 30.756 18.0257C30.756 9.76372 24.0585 3.06616 15.7965 3.06616C7.5346 3.06616 0.837036 9.76372 0.837036 18.0257C0.837036 26.2876 7.5346 32.9852 15.7965 32.9852Z" fill="#4D5270" style="fill:#4D5270;fill:color(display-p3 0.3020 0.3216 0.4392);fill-opacity:1;"/>
<path d="M23.6764 18.0257C23.6764 16.423 23.1949 14.9317 22.3702 13.6856L24.8166 11.2392L22.6165 9.03905L20.1767 11.4788C18.8824 10.6081 17.3576 10.1439 15.7977 10.1458C14.1949 10.1458 12.7037 10.6273 11.4576 11.4521L9.01005 9.00562L6.80993 11.2057L9.24968 13.6455C8.379 14.9398 7.91482 16.4647 7.91667 18.0246C7.91667 19.6273 8.39816 21.1186 9.22293 22.3646L6.77649 24.8122L8.97661 27.0123L11.4164 24.5726C12.7107 25.4432 14.2355 25.9074 15.7954 25.9056C17.3982 25.9056 18.8894 25.4241 20.1355 24.5993L22.5831 27.0469L24.7832 24.8467L22.3434 22.407C23.1849 21.152 23.6764 19.6451 23.6764 18.0257ZM11.0296 18.0257C11.0296 15.3965 13.1684 13.2576 15.7977 13.2576C18.4269 13.2576 20.5657 15.3965 20.5657 18.0257C20.5657 20.6549 18.4269 22.7937 15.7977 22.7937C13.1684 22.7937 11.0296 20.6549 11.0296 18.0257Z" fill="white" style="fill:white;fill-opacity:1;"/>
<path d="M41.8447 29.3127V7.2334H56.417V11.3023H46.576V16.4751H54.6507V20.3548H46.576V29.3127H41.8447ZM66.8155 13.1002H67.5725V17.1375H65.8061C63.1566 17.1375 62.1473 18.9039 62.1473 21.3641V29.3127H57.6999V13.1002H61.7372L62.1473 15.5289C63.0304 14.078 64.2921 13.1002 66.8155 13.1002ZM84.614 25.5592H85.1186V29.3127H82.8476C80.5451 29.3127 79.8196 28.2087 79.8511 26.6631C78.7156 28.461 77.0755 29.5019 74.5521 29.5019C71.051 29.5019 68.5276 27.8302 68.5276 24.7391C68.5276 21.301 71.1141 19.3454 75.9715 19.3454H79.1888V18.5569C79.1888 17.106 78.1479 16.1597 76.2869 16.1597C74.5521 16.1597 73.3851 16.9483 73.1958 18.1469H68.9061C69.2216 14.9927 72.1234 12.9109 76.4131 12.9109C80.9551 12.9109 83.5731 14.9296 83.5731 18.8092V24.5498C83.5731 25.4015 83.92 25.5592 84.614 25.5592ZM79.1888 22.6258V22.3104H75.94C74.079 22.3104 73.0066 23.0674 73.0066 24.4237C73.0066 25.5592 73.9213 26.2846 75.4037 26.2846C77.7378 26.2846 79.1572 24.8337 79.1888 22.6258ZM85.1989 29.3127L91.2234 21.0487L85.4827 13.1002H90.561L93.9044 17.8945L97.3425 13.1002H102.137L96.4278 21.0487L102.452 29.3127H97.374L93.6521 24.2344L89.9617 29.3127H85.1989Z" fill="#4D5270" style="fill:#4D5270;fill:color(display-p3 0.3020 0.3216 0.4392);fill-opacity:1;"/>
</g>
<defs>
<clipPath id="clip0_1_1042">
<rect width="102.539" height="36" fill="white" style="fill:white;fill-opacity:1;"/>
</clipPath>
</defs>
</svg>
